<svg width="17" height="17" viewBox="0 0 17 17" fill="none" xmlns="http://www.w3.org/2000/svg">
<path d="M14.7917 0.169922H2.54175C1.50787 0.169922 0.666748 1.01105 0.666748 2.04492V14.2949C0.666748 15.3288 1.50787 16.1699 2.54175 16.1699H14.7917C15.8256 16.1699 16.6667 15.3288 16.6667 14.2949V2.04492C16.6667 1.01105 15.8256 0.169922 14.7917 0.169922ZM15.4167 14.2949C15.4167 14.6395 15.1364 14.9199 14.7917 14.9199H11.2292V9.82617H13.1602L13.4792 7.88867H11.2292V6.54492C11.2292 6.01445 11.6363 5.60742 12.1667 5.60742H13.448V3.66992H12.1667C10.5754 3.66992 9.29244 4.95898 9.29244 6.55036V7.88867H7.41675V9.82617H9.29244V14.9199H2.54175C2.19712 14.9199 1.91675 14.6395 1.91675 14.2949V2.04492C1.91675 1.7003 2.19712 1.41992 2.54175 1.41992H14.7917C15.1364 1.41992 15.4167 1.7003 15.4167 2.04492V14.2949Z" fill="#660066"/>
</svg>
