<svg width="17" height="17" viewBox="0 0 17 17" fill="none" xmlns="http://www.w3.org/2000/svg">
<path d="M16.6261 4.87398C16.5886 4.02384 16.4511 3.43937 16.2541 2.93292C16.0509 2.39534 15.7383 1.91404 15.3287 1.51394C14.9285 1.10761 14.444 0.791871 13.9125 0.591881C13.403 0.394942 12.8215 0.257464 11.9712 0.219981C11.1145 0.179323 10.8426 0.169922 8.66986 0.169922C6.49714 0.169922 6.22519 0.179323 5.3717 0.216806C4.5214 0.254289 3.93682 0.39189 3.4304 0.588706C2.89259 0.791871 2.4112 1.10443 2.01102 1.51394C1.60461 1.91404 1.28894 2.39851 1.08879 2.92987C0.891811 3.43937 0.754307 4.02066 0.716816 4.87081C0.676151 5.7273 0.666748 5.9992 0.666748 8.17151C0.666748 10.3438 0.676151 10.6157 0.713641 11.469C0.751131 12.3192 0.888758 12.9036 1.08573 13.4101C1.28894 13.9477 1.60461 14.429 2.01102 14.8291C2.4112 15.2354 2.89576 15.5511 3.42722 15.7511C3.93682 15.9481 4.51822 16.0856 5.36865 16.123C6.22201 16.1606 6.49409 16.1699 8.66681 16.1699C10.8395 16.1699 11.1115 16.1606 11.965 16.123C12.8153 16.0856 13.3999 15.9481 13.9063 15.7511C14.9818 15.3354 15.8321 14.4853 16.2479 13.4101C16.4447 12.9006 16.5824 12.3192 16.6199 11.469C16.6573 10.6157 16.6667 10.3438 16.6667 8.17151C16.6667 5.9992 16.6636 5.7273 16.6261 4.87398ZM15.185 11.4065C15.1505 12.1879 15.0193 12.6099 14.9098 12.8912C14.6409 13.5882 14.0876 14.1414 13.3904 14.4103C13.1091 14.5197 12.684 14.6509 11.9055 14.6853C11.0614 14.7229 10.8083 14.7321 8.67304 14.7321C6.53781 14.7321 6.28148 14.7229 5.44046 14.6853C4.6589 14.6509 4.23686 14.5197 3.9555 14.4103C3.60857 14.2821 3.29277 14.0789 3.03644 13.8133C2.77072 13.5538 2.56751 13.2412 2.43929 12.8944C2.32987 12.6131 2.19859 12.1879 2.16428 11.4097C2.12667 10.5658 2.11739 10.3126 2.11739 8.17774C2.11739 6.04291 2.12667 5.78664 2.16428 4.94589C2.19859 4.16449 2.32987 3.74253 2.43929 3.46122C2.56751 3.11423 2.77072 2.79862 3.03962 2.54222C3.299 2.27654 3.61162 2.07338 3.95868 1.9453C4.24004 1.8359 4.66525 1.70465 5.44363 1.67022C6.28771 1.63274 6.54098 1.62334 8.67609 1.62334C10.8145 1.62334 11.0676 1.63274 11.9087 1.67022C12.6902 1.70465 13.1123 1.8359 13.3936 1.9453C13.7406 2.07338 14.0564 2.27654 14.3127 2.54222C14.5784 2.80167 14.7816 3.11423 14.9098 3.46122C15.0193 3.74253 15.1505 4.16754 15.185 4.94589C15.2225 5.78981 15.2319 6.04291 15.2319 8.17774C15.2319 10.3126 15.2225 10.5626 15.185 11.4065Z" fill="#660066"/>
<path d="M8.66981 4.06131C6.40025 4.06131 4.55884 5.90225 4.55884 8.1715C4.55884 10.4408 6.40025 12.2817 8.66981 12.2817C10.9395 12.2817 12.7808 10.4408 12.7808 8.1715C12.7808 5.90225 10.9395 4.06131 8.66981 4.06131ZM8.66981 10.8377C7.19744 10.8377 6.00312 9.64372 6.00312 8.1715C6.00312 6.69929 7.19744 5.50533 8.66981 5.50533C10.1423 5.50533 11.3365 6.69929 11.3365 8.1715C11.3365 9.64372 10.1423 10.8377 8.66981 10.8377Z" fill="#660066"/>
<path d="M13.9031 3.89881C13.9031 4.4287 13.4734 4.85835 12.9433 4.85835C12.4133 4.85835 11.9836 4.4287 11.9836 3.89881C11.9836 3.3688 12.4133 2.93927 12.9433 2.93927C13.4734 2.93927 13.9031 3.3688 13.9031 3.89881Z" fill="#660066"/>
</svg>
