<svg width="15" height="16" viewBox="0 0 15 16" fill="none" xmlns="http://www.w3.org/2000/svg">
<path d="M14.8668 15.3699V10.0959C14.8668 7.50393 14.3088 5.52393 11.2848 5.52393C9.82679 5.52393 8.85479 6.31593 8.45879 7.07193H8.42279V5.75793H5.56079V15.3699H8.54879V10.5999C8.54879 9.33993 8.78279 8.13393 10.3308 8.13393C11.8608 8.13393 11.8788 9.55593 11.8788 10.6719V15.3519H14.8668V15.3699Z" fill="#660066"/>
<path d="M0.700684 5.75806H3.68868V15.3701H0.700684V5.75806Z" fill="#660066"/>
<path d="M2.1948 0.969971C1.2408 0.969971 0.466797 1.74397 0.466797 2.69797C0.466797 3.65197 1.2408 4.44397 2.1948 4.44397C3.1488 4.44397 3.9228 3.65197 3.9228 2.69797C3.9228 1.74397 3.1488 0.969971 2.1948 0.969971Z" fill="#660066"/>
</svg>
