<svg width="13" height="15" viewBox="0 0 13 15" fill="none" xmlns="http://www.w3.org/2000/svg">
<path d="M12.8004 3.68066C12.0014 3.68066 11.2642 3.41598 10.6722 2.96945C9.99331 2.45758 9.50549 1.70672 9.33323 0.841289C9.29057 0.627461 9.2676 0.406797 9.26542 0.180664H6.98303V6.41723L6.9803 9.83328C6.9803 10.7466 6.38557 11.5209 5.56116 11.7933C5.3219 11.8723 5.0635 11.9098 4.79444 11.895C4.451 11.8761 4.12916 11.7725 3.84944 11.6052C3.25416 11.2491 2.85057 10.6033 2.83963 9.86445C2.82241 8.70973 3.75592 7.76828 4.90983 7.76828C5.1376 7.76828 5.35635 7.80547 5.56116 7.87301V6.1684V5.55562C5.34514 5.52363 5.1253 5.50695 4.90299 5.50695C3.63998 5.50695 2.45873 6.03195 1.61436 6.97777C0.976157 7.69254 0.593344 8.60445 0.534281 9.56066C0.456899 10.8168 0.916547 12.0109 1.80795 12.892C1.93893 13.0213 2.07647 13.1413 2.2203 13.2521C2.98456 13.8402 3.91889 14.1591 4.90299 14.1591C5.1253 14.1591 5.34514 14.1427 5.56116 14.1107C6.48045 13.9745 7.32866 13.5537 7.99803 12.892C8.82053 12.079 9.27499 10.9998 9.27991 9.85105L9.26815 4.7498C9.66053 5.0525 10.0896 5.30297 10.55 5.49738C11.2662 5.79953 12.0255 5.95266 12.807 5.95238V4.29508V3.68012C12.8075 3.68066 12.801 3.68066 12.8004 3.68066Z" fill="#660066"/>
</svg>
