<svg width="17" height="13" viewBox="0 0 17 13" fill="none" xmlns="http://www.w3.org/2000/svg">
<path d="M16.3371 2.04764C16.1527 1.31339 15.6123 0.734596 14.9269 0.536887C13.6749 0.169922 8.66657 0.169922 8.66657 0.169922C8.66657 0.169922 3.65845 0.169922 2.4064 0.522974C1.73423 0.720474 1.18062 1.3135 0.996241 2.04764C0.666748 3.38871 0.666748 6.16992 0.666748 6.16992C0.666748 6.16992 0.666748 8.96515 0.996241 10.2922C1.18081 11.0263 1.72105 11.6051 2.4065 11.8029C3.67164 12.1699 8.66676 12.1699 8.66676 12.1699C8.66676 12.1699 13.6749 12.1699 14.9269 11.8169C15.6124 11.6193 16.1527 11.0405 16.3373 10.3063C16.6667 8.96515 16.6667 6.18404 16.6667 6.18404C16.6667 6.18404 16.6799 3.38871 16.3371 2.04764ZM7.07203 8.7393V3.60054L11.2367 6.16992L7.07203 8.7393Z" fill="#660066"/>
</svg>
