<svg width="150" height="30" viewBox="0 0 150 30" fill="none" xmlns="http://www.w3.org/2000/svg">
<g clip-path="url(#clip0_12041_3633)">
<path d="M147.173 16.879C146.829 15.5061 146.327 14.415 145.667 13.5936C145.002 12.7723 144.129 12.1133 143.041 11.6119C141.956 11.1105 140.813 10.8598 139.619 10.8598C137.642 10.8598 135.946 11.4877 134.526 12.746C133.483 13.6676 132.704 15.0405 132.171 16.879H147.171H147.173ZM147.149 22.2583L149.323 23.3996C148.608 24.7844 147.786 25.9066 146.848 26.759C145.913 27.6066 144.863 28.2584 143.696 28.7025C142.522 29.1466 141.202 29.3662 139.727 29.3662C136.449 29.3662 133.892 28.3014 132.046 26.1692C130.2 24.0371 129.277 21.6303 129.277 18.9467C129.277 16.4206 130.061 14.1619 131.625 12.1873C133.603 9.67316 136.26 8.4125 139.581 8.4125C142.903 8.4125 145.741 9.7042 147.781 12.2804C149.232 14.0998 149.971 16.368 149.998 19.0947H131.912C131.963 21.4083 132.709 23.3017 134.148 24.7748C135.592 26.2552 137.376 26.9953 139.493 26.9953C140.516 26.9953 141.516 26.8186 142.482 26.4677C143.448 26.1167 144.27 25.6535 144.95 25.0685C145.629 24.4859 146.363 23.55 147.147 22.2535L147.149 22.2583ZM122.34 1.19234H124.901V28.8792H122.34V1.19234ZM115.149 16.879C114.805 15.5061 114.303 14.415 113.643 13.5936C112.978 12.7723 112.105 12.1133 111.017 11.6119C109.932 11.1105 108.789 10.8598 107.595 10.8598C105.618 10.8598 103.922 11.4877 102.502 12.746C101.459 13.6676 100.68 15.0405 100.147 16.879H115.147H115.149ZM115.126 22.2583L117.299 23.3996C116.584 24.7844 115.762 25.9066 114.824 26.759C113.889 27.6066 112.839 28.2584 111.673 28.7025C110.498 29.1466 109.181 29.3662 107.703 29.3662C104.425 29.3662 101.868 28.3014 100.022 26.1692C98.1762 24.0371 97.2531 21.6303 97.2531 18.9467C97.2531 16.4206 98.0375 14.1619 99.6013 12.1873C101.579 9.67316 104.236 8.4125 107.557 8.4125C110.879 8.4125 113.717 9.7042 115.757 12.2804C117.208 14.0998 117.947 16.368 117.974 19.0947H99.8883C99.9385 21.4083 100.687 23.3017 102.124 24.7748C103.568 26.2552 105.352 26.9953 107.469 26.9953C108.492 26.9953 109.492 26.8186 110.458 26.4677C111.424 26.1167 112.246 25.6535 112.926 25.0685C113.605 24.4859 114.339 23.55 115.123 22.2535L115.126 22.2583ZM75.471 8.90435H78.166L84.9046 23.4879L91.593 8.90435H94.3501L85.1939 28.8792H84.7037L75.4734 8.90435H75.471ZM69.4354 8.90435H71.9965V28.8792H69.4354V8.90435ZM70.71 0.702881C71.2934 0.702881 71.7908 0.910604 72.2045 1.33082C72.6182 1.74388 72.8262 2.25244 72.8262 2.83502C72.8262 3.4176 72.6182 3.91423 72.2045 4.32728C71.7908 4.7475 71.2934 4.95523 70.71 4.95523C70.1265 4.95523 69.6434 4.7475 69.2274 4.32728C68.8137 3.91423 68.6056 3.41283 68.6056 2.83502C68.6056 2.25722 68.8137 1.74388 69.2274 1.33082C69.6411 0.910604 70.1313 0.702881 70.71 0.702881ZM46.8354 8.90435H49.3965V12.4834C50.4319 11.1177 51.575 10.0958 52.8256 9.42485C54.081 8.75393 55.444 8.41489 56.9195 8.41489C58.3949 8.41489 59.7507 8.79213 60.9129 9.549C62.0751 10.3083 62.9359 11.3302 63.4883 12.6147C64.0407 13.8945 64.3181 15.8929 64.3181 18.6076V28.8768H61.757V19.3597C61.757 17.0652 61.6566 15.53 61.4629 14.7588C61.1496 13.4432 60.5709 12.4523 59.7244 11.7814C58.8755 11.1177 57.7708 10.7834 56.4077 10.7834C54.8438 10.7834 53.4449 11.2967 52.2134 12.3258C50.9771 13.3477 50.1593 14.6203 49.7719 16.1388C49.528 17.1297 49.4013 18.9347 49.4013 21.5611V28.8768H46.8402V8.90435H46.8354Z" fill="#003030"/>
<path fill-rule="evenodd" clip-rule="evenodd" d="M2.93655 0.55024C2.26699 0.688721 1.7983 0.896444 1.31287 1.28563C0.18419 2.17621 -0.279718 3.78307 0.169842 5.21326C0.241581 5.43053 0.318101 5.61915 0.339623 5.62631C0.365927 5.63109 0.459187 5.51171 0.554838 5.35413C0.782009 4.97449 1.34874 4.30357 1.77678 3.90723C2.86481 2.89727 4.34979 2.30514 5.9376 2.23829C6.1839 2.22873 6.39673 2.21202 6.41586 2.1977C6.44694 2.16188 6.14803 1.75599 5.92086 1.51961C5.18913 0.765125 3.91697 0.34968 2.93655 0.55024Z" fill="#FF6712"/>
<path fill-rule="evenodd" clip-rule="evenodd" d="M4.06519 4.97189C4.06519 4.99815 4.12736 5.15096 4.1991 5.3157C4.27562 5.47568 4.33301 5.62848 4.33301 5.6452C4.33301 5.66668 4.49322 6.02005 4.68931 6.42356C4.88539 6.83423 5.04561 7.17566 5.04561 7.18521C5.04561 7.22102 5.65299 8.30739 5.95908 8.82073C6.81515 10.2509 7.51101 11.2036 8.78796 12.6958C9.21599 13.1948 10.4642 14.4245 10.9999 14.8638C11.1027 14.9474 11.2103 15.0429 11.2462 15.0739C11.8799 15.6135 12.7814 16.2629 13.5872 16.7572C14.4529 17.292 14.6442 17.3994 15.3496 17.7409C16.8394 18.4715 18.1952 18.9562 19.8093 19.331C20.0915 19.3979 20.3928 19.4695 20.4789 19.491C20.773 19.5626 21.6172 19.6772 22.3967 19.7584C23.3054 19.8467 25.216 19.8706 26.0315 19.799C26.6436 19.7465 28.3056 19.5101 28.7073 19.4194C28.8555 19.3883 29.0229 19.3525 29.0875 19.3382C29.4175 19.2666 29.8097 19.1639 30.6251 18.9371C31.0436 18.8201 31.8662 18.5455 32.3827 18.3449C32.6672 18.2327 32.9709 18.1181 33.0594 18.0871C33.1479 18.0513 33.3272 17.9749 33.4611 17.9175C33.5951 17.8555 33.8318 17.7528 33.992 17.6812C34.9294 17.2753 36.632 16.3322 37.6531 15.6541C38.4565 15.1193 38.545 15.0572 38.478 15.0429C38.4422 15.0333 38.2317 15.0954 38.0189 15.1813C37.8037 15.2625 37.5383 15.3556 37.4259 15.3867C37.3135 15.4225 37.1676 15.4679 37.0911 15.4893C36.9476 15.5347 36.4622 15.6684 36.0198 15.7782C35.8716 15.8141 35.4626 15.9024 35.1063 15.974C34.75 16.0457 34.4105 16.1125 34.3483 16.1244C34.1211 16.177 33.497 16.2749 33.2459 16.2987C33.1025 16.3131 32.9159 16.3346 32.8322 16.3489C31.0794 16.5757 28.944 16.6258 26.9664 16.4826C26.3232 16.4325 25.5293 16.3632 25.271 16.3274C22.7076 15.9573 20.6678 15.4941 18.805 14.8566C18.5109 14.7587 18.0685 14.6083 17.8246 14.5271C16.7461 14.1618 15.3185 13.5482 13.9005 12.8295C12.3749 12.0536 11.349 11.4447 9.86403 10.4109C9.53403 10.1841 9.18252 9.91187 8.83817 9.63252C8.8023 9.60625 8.70904 9.53462 8.62774 9.4821C8.55122 9.42957 8.29774 9.22901 8.07057 9.03561C7.8434 8.8446 7.62101 8.65598 7.57558 8.62256C6.72907 7.93731 4.86865 5.99856 4.31627 5.22498C4.10105 4.92652 4.06758 4.89071 4.06758 4.97189H4.06519Z" fill="#FF6712"/>
<path fill-rule="evenodd" clip-rule="evenodd" d="M38.8965 11.1129C38.7147 11.1535 38.49 11.2204 38.4015 11.2609C38.313 11.2968 38.2006 11.3445 38.148 11.3588C38.0045 11.409 38.0237 11.4424 38.2867 11.6072C39.0089 12.0704 39.9271 13.0015 40.3336 13.6772C40.9673 14.7325 41.283 15.9001 41.3021 17.2276C41.3069 17.4592 41.3236 17.5738 41.3595 17.5738C41.4217 17.5738 41.8999 17.1775 42.1008 16.9554C42.5958 16.411 42.909 15.6995 43.0071 14.9021C43.1458 13.7632 42.7034 12.6076 41.8569 11.8913C41.3164 11.4281 40.8573 11.2108 40.1973 11.0938C39.7286 11.0102 39.3269 11.0126 38.8989 11.1105L38.8965 11.1129Z" fill="#FF6712"/>
<path d="M19.3908 29.4332C21.8301 29.4332 23.8075 27.5101 23.8075 25.1379C23.8075 22.7656 21.8301 20.8425 19.3908 20.8425C16.9515 20.8425 14.9741 22.7656 14.9741 25.1379C14.9741 27.5101 16.9515 29.4332 19.3908 29.4332Z" fill="#FF6712"/>
<path d="M19.3908 29.4332C21.8301 29.4332 23.8075 27.5101 23.8075 25.1379C23.8075 22.7656 21.8301 20.8425 19.3908 20.8425C16.9515 20.8425 14.9741 22.7656 14.9741 25.1379C14.9741 27.5101 16.9515 29.4332 19.3908 29.4332Z" stroke="#F15844" stroke-width="0.57" stroke-miterlimit="22.93"/>
<path fill-rule="evenodd" clip-rule="evenodd" d="M31.8757 20.8401C34.3148 20.8401 36.2924 22.7645 36.2924 25.1354C36.2924 27.5063 34.3148 29.4307 31.8757 29.4307C29.4366 29.4307 27.459 27.5063 27.459 25.1354C27.459 22.7645 29.4366 20.8401 31.8757 20.8401Z" fill="#FF6712"/>
<path d="M31.8757 20.8401C34.3148 20.8401 36.2924 22.7645 36.2924 25.1354C36.2924 27.5063 34.3148 29.4307 31.8757 29.4307C29.4366 29.4307 27.459 27.5063 27.459 25.1354C27.459 22.7645 29.4366 20.8401 31.8757 20.8401Z" stroke="#F15844" stroke-width="0.57" stroke-miterlimit="22.93"/>
<path d="M36.2924 24.696H27.4614V25.4672H36.2924V24.696Z" fill="white"/>
<path d="M36.2924 24.696H27.4614V25.4672H36.2924V24.696Z" stroke="white" stroke-width="0.57" stroke-miterlimit="22.93"/>
</g>
<defs>
<clipPath id="clip0_12041_3633">
<rect width="150" height="29" fill="white" transform="translate(0 0.5)"/>
</clipPath>
</defs>
</svg>
