<svg width="160" height="67" viewBox="0 0 160 67" fill="none" xmlns="http://www.w3.org/2000/svg">
<path fill-rule="evenodd" clip-rule="evenodd" d="M29.6783 37.1893C44.976 35.9429 56.112 35.0906 71.2886 37.7077C82.648 39.6674 93.9198 42.8341 105.413 43.815C117.138 44.8167 131.703 43.5641 143.737 41.3659V65.6043C131.224 67.5724 117.52 67.6014 105.411 64.7375C92.5993 61.7077 81.9649 54.2918 71.3011 48.8813C67.0348 46.7183 62.9627 44.7503 58.4415 43.703C53.6821 42.6019 45.5297 42.8113 40.6199 43.1514C36.5959 43.4293 33.4787 43.7072 29.6803 44.0266V37.1872L29.6783 37.1893Z" fill="#E50046"/>
<path fill-rule="evenodd" clip-rule="evenodd" d="M29.6783 44.0286C33.4787 43.7072 36.5959 43.4314 40.6178 43.1535C45.5255 42.8134 53.6779 42.6039 58.4394 43.7051C62.9627 44.7503 67.0348 46.7183 71.299 48.8834C81.9628 54.2939 92.5972 61.7098 105.409 64.7396C117.518 67.6014 131.222 67.5744 143.735 65.6064V47.3674C127.033 50.447 116.534 50.7249 105.43 49.0348C93.6147 47.2368 82.8006 43.5392 71.3638 40.5301C67.064 39.3978 62.8165 38.5559 58.4749 38.0271C52.7064 37.3241 46.355 37.7036 40.6178 38.0354C36.8153 38.2573 33.5017 38.6617 29.6783 38.9105V44.0307V44.0286Z" fill="#AFCA0B"/>
<path fill-rule="evenodd" clip-rule="evenodd" d="M29.6783 44.0286C33.4787 43.7072 36.5959 43.4314 40.6178 43.1535C45.5255 42.8134 53.6779 42.6039 58.4394 43.7051C62.9627 44.7503 67.0348 46.7183 71.299 48.8834C81.9628 54.2939 92.5972 61.7098 105.409 64.7396C117.518 67.6014 131.222 67.5744 143.735 65.6064L143.735 53.1284C130.85 55.5817 118.603 56.687 105.434 54.298C92.9587 52.0335 83.0387 46.9755 71.3554 43.3194C67.0578 41.9735 62.7852 40.4078 58.4373 39.8582C52.6479 39.1283 46.3529 39.2962 40.6157 39.74C36.832 40.0324 33.4703 40.3269 29.6762 40.5571V44.0307L29.6783 44.0286Z" fill="#FFED00"/>
<path fill-rule="evenodd" clip-rule="evenodd" d="M143.737 59.0906C131.435 61.7139 117.493 62.2718 105.413 59.5198C93.5771 56.8239 82.4893 50.6108 71.3533 46.0941C67.039 44.3438 62.9042 42.6827 58.4394 41.8263C51.9752 40.5841 46.355 40.9387 40.6178 41.4447C36.9636 41.7661 33.6709 41.9403 29.6783 42.3426V44.0286C33.4787 43.7072 36.5959 43.4314 40.6178 43.1535C45.5255 42.8134 53.6779 42.6039 58.4394 43.7051C62.9627 44.7503 67.0348 46.7183 71.299 48.8834C81.9628 54.2939 92.5972 61.7098 105.409 64.7396C117.518 67.6014 131.224 67.5744 143.735 65.6064L143.735 59.0926L143.737 59.0906Z" fill="#008BD2"/>
<path fill-rule="evenodd" clip-rule="evenodd" d="M35.5011 5.7361C36.5165 5.02272 37.6092 4.42132 38.5995 4.16624C39.2493 3.99827 39.9346 4.03767 40.5551 4.29274C41.1777 4.54782 41.6896 5.00198 42.028 5.57642C42.5462 6.45156 42.8909 7.64399 43.0999 8.8613C44.9907 8.16866 47.5041 7.57348 49.3134 7.82233C49.9966 7.91566 50.6297 8.21843 51.1165 8.7037C51.6054 9.18896 51.9104 9.81732 52.0044 10.4934C52.2551 12.2893 51.6555 14.784 50.9598 16.6608C52.1862 16.8682 53.3875 17.2125 54.2692 17.7247C54.8479 18.0627 55.3055 18.5708 55.5625 19.1867C55.8195 19.8047 55.8591 20.4828 55.6899 21.1278C55.4329 22.1107 54.827 23.1953 54.1083 24.2032C55.9365 25.041 58.1386 26.3828 59.2417 27.8303C59.6575 28.3757 59.8894 29.0351 59.8894 29.7195C59.8894 30.4038 59.6575 31.0633 59.2417 31.6087C58.1386 33.0541 55.9385 34.3979 54.1083 35.2358C54.827 36.2436 55.4329 37.3282 55.6899 38.3112C55.8591 38.9561 55.8195 39.6363 55.5625 40.2523C55.3055 40.8702 54.8479 41.3783 54.2692 41.7143C53.3875 42.2286 52.1862 42.5708 50.9598 42.7781C51.6576 44.6528 52.2572 47.1476 52.0044 48.9435C51.9104 49.6216 51.6054 50.25 51.1165 50.7332C50.6276 51.2185 49.9945 51.5212 49.3134 51.6146C47.5041 51.8634 44.9907 51.2682 43.0999 50.5777C42.8909 51.795 42.5441 52.9874 42.028 53.8625C41.6875 54.437 41.1756 54.8911 40.5551 55.1462C39.9325 55.4013 39.2493 55.4407 38.5995 55.2727C37.6092 55.0176 36.5165 54.4162 35.5011 53.7029C34.657 55.5174 33.3053 57.7032 31.8469 58.7982C31.2974 59.2108 30.6331 59.441 29.9436 59.441C29.2541 59.441 28.5897 59.2108 28.0402 58.7982C26.584 57.7032 25.2301 55.5195 24.3861 53.7029C23.3707 54.4162 22.278 55.0176 21.2877 55.2727C20.6379 55.4407 19.9526 55.4013 19.3321 55.1462C18.7095 54.8911 18.1976 54.437 17.8591 53.8625C17.3431 52.9874 16.9962 51.795 16.7873 50.5777C14.8986 51.2682 12.3852 51.8655 10.5759 51.6146C9.89266 51.5212 9.2596 51.2185 8.7728 50.7332C8.2839 50.2479 7.97887 49.6196 7.88485 48.9435C7.63413 47.1476 8.23376 44.6528 8.92949 42.7781C7.70308 42.5687 6.50174 42.2265 5.62006 41.7143C5.04132 41.3763 4.58377 40.8682 4.32679 40.2523C4.0698 39.6343 4.03011 38.9561 4.19934 38.3112C4.45632 37.3303 5.06222 36.2436 5.78093 35.2358C3.9528 34.3979 1.75069 33.0562 0.649633 31.6087C0.233864 31.0633 0.00195312 30.4038 0.00195312 29.7195C0.00195312 29.0351 0.233864 28.3757 0.649633 27.8303C1.75278 26.3848 3.9528 25.041 5.78302 24.2032C5.06431 23.1953 4.45841 22.1107 4.20143 21.1278C4.0322 20.4828 4.07189 19.8026 4.32888 19.1867C4.58586 18.5687 5.04341 18.0606 5.62215 17.7247C6.50383 17.2104 7.70517 16.8682 8.93158 16.6608C8.23376 14.784 7.63413 12.2893 7.88485 10.4934C7.97887 9.81525 8.2839 9.18689 8.7728 8.7037C9.26169 8.21843 9.89475 7.91566 10.5759 7.82233C12.3852 7.57348 14.8986 8.16866 16.7894 8.8613C16.9983 7.64399 17.3431 6.45156 17.8612 5.57642C18.2018 5.00198 18.7136 4.54782 19.3342 4.29274C19.9568 4.03767 20.64 3.99827 21.2897 4.16624C22.278 4.42132 23.3728 5.02272 24.3882 5.7361C25.2322 3.92154 26.584 1.73576 28.0423 0.642875C28.5918 0.230191 29.2562 0 29.9457 0C30.6351 0 31.2995 0.230191 31.849 0.642875C33.3073 1.73784 34.6591 3.92154 35.5032 5.73818L35.5011 5.7361Z" fill="white"/>
<path fill-rule="evenodd" clip-rule="evenodd" d="M34.1556 11.1466L34.189 11.1114C35.1021 10.1927 36.9678 8.67465 38.3384 8.32003C38.5389 8.26819 38.7186 8.291 38.8607 8.34907C39.0028 8.40713 39.1448 8.51704 39.2514 8.69539C39.968 9.90856 40.2062 12.2913 40.1978 13.5833V13.631C40.7766 13.3282 41.3783 13.0524 42.003 12.7911C43.3046 12.2457 45.8139 11.4909 47.339 11.7003C47.5626 11.7314 47.7339 11.8289 47.8509 11.945C47.9679 12.0611 48.0661 12.2312 48.0974 12.4531C48.3085 13.967 47.5501 16.4576 46.9985 17.7496C46.7352 18.3696 46.4573 18.9669 46.1523 19.5413H46.2004C47.502 19.533 49.9026 19.7674 51.1248 20.4787C51.3045 20.5824 51.4152 20.7254 51.4737 20.8665C51.5322 21.0075 51.5552 21.1858 51.503 21.3849C51.1457 22.7453 49.6164 24.5972 48.6908 25.5035L48.6553 25.5366C49.28 25.7295 49.9005 25.9555 50.5294 26.2106C51.8394 26.7394 54.1501 27.9671 55.0799 29.1844C55.2157 29.3628 55.2679 29.5515 55.2679 29.7174C55.2679 29.8833 55.2157 30.0699 55.0799 30.2504C54.1522 31.4697 51.8394 32.6974 50.5294 33.2242C49.9005 33.4772 49.28 33.7053 48.6553 33.8982L48.6908 33.9313C49.6164 34.8376 51.1457 36.6895 51.503 38.0499C51.5552 38.249 51.5322 38.4273 51.4737 38.5683C51.4152 38.7094 51.3045 38.8504 51.1248 38.9561C49.9026 39.6674 47.502 39.9039 46.2004 39.8956H46.1523C46.4573 40.47 46.7331 41.0672 46.9985 41.6873C47.548 42.9793 48.3085 45.4699 48.0974 46.9838C48.0661 47.2057 47.9679 47.3757 47.8509 47.4919C47.7339 47.608 47.5626 47.7055 47.339 47.7366C45.8139 47.946 43.3046 47.1932 42.003 46.6457C41.3783 46.3844 40.7766 46.1086 40.1978 45.8059V45.8536C40.2062 47.1455 39.9701 49.5283 39.2535 50.7415C39.149 50.9198 39.0048 51.0297 38.8628 51.0878C38.7207 51.1459 38.541 51.1687 38.3405 51.1168C36.9699 50.7622 35.1041 49.2442 34.1911 48.3255L34.1577 48.2903C33.9634 48.9103 33.7357 49.5262 33.4787 50.1504C32.9459 51.4507 31.709 53.7443 30.4826 54.6672C30.3029 54.802 30.1128 54.8538 29.9457 54.8538C29.7785 54.8538 29.5905 54.802 29.4087 54.6672C28.1802 53.7443 26.9434 51.4507 26.4127 50.1504C26.1578 49.5262 25.928 48.9103 25.7337 48.2903L25.7002 48.3255C24.7872 49.2442 22.9215 50.7622 21.5509 51.1168C21.3503 51.1687 21.1707 51.1459 21.0286 51.0878C20.8865 51.0297 20.7444 50.9198 20.6379 50.7415C19.9213 49.5283 19.6831 47.1455 19.6935 45.8536V45.8059C19.1148 46.1086 18.5131 46.3824 17.8884 46.6457C16.5847 47.1912 14.0775 47.946 12.5523 47.7366C12.3288 47.7055 12.1575 47.608 12.0405 47.4919C11.9235 47.3757 11.8253 47.2057 11.7939 46.9838C11.5829 45.4699 12.3413 42.9793 12.8929 41.6873C13.1561 41.0672 13.434 40.47 13.7391 39.8956H13.691C12.3894 39.9039 9.98877 39.6695 8.76654 38.9582C8.58686 38.8545 8.47613 38.7114 8.41763 38.5704C8.35913 38.4294 8.33614 38.251 8.38838 38.052C8.74565 36.6916 10.275 34.8397 11.2006 33.9334L11.2361 33.9002C10.6114 33.7074 9.99086 33.4813 9.36199 33.2262C8.052 32.6974 5.74124 31.4697 4.81151 30.2524C4.67571 30.0741 4.62347 29.8854 4.62347 29.7195C4.62347 29.5536 4.67571 29.3669 4.81151 29.1865C5.73916 27.9671 8.052 26.7394 9.36199 26.2127C9.99086 25.9597 10.6114 25.7316 11.2361 25.5387L11.2006 25.5055C10.275 24.5993 8.74565 22.7474 8.38838 21.387C8.33614 21.1879 8.35913 21.0096 8.41763 20.8685C8.47613 20.7275 8.58686 20.5865 8.76654 20.4807C9.98877 19.7694 12.3894 19.533 13.691 19.5434H13.7391C13.434 18.9689 13.1561 18.3717 12.8929 17.7516C12.3434 16.4576 11.5829 13.969 11.7939 12.4552C11.8253 12.2333 11.9235 12.0632 12.0405 11.9471C12.1575 11.831 12.3288 11.7335 12.5523 11.7024C14.0775 11.4929 16.5868 12.2457 17.8884 12.7932C18.5131 13.0545 19.1148 13.3303 19.6935 13.6331V13.5854C19.6852 12.2934 19.9213 9.91063 20.6379 8.69746C20.7424 8.51912 20.8865 8.40921 21.0286 8.35114C21.1707 8.29307 21.3503 8.27026 21.5509 8.32211C22.9215 8.67673 24.7872 10.1947 25.7002 11.1134L25.7337 11.1487C25.928 10.5286 26.1557 9.9127 26.4127 9.28849C26.9455 7.98823 28.1823 5.69462 29.4087 4.77178C29.5884 4.63698 29.7785 4.58514 29.9457 4.58514C30.1128 4.58514 30.3029 4.63698 30.4826 4.77178C31.7111 5.69254 32.948 7.98823 33.4787 9.28849C33.7336 9.9127 33.9634 10.5286 34.1577 11.1487L34.1556 11.1466Z" fill="#FFED00"/>
<path fill-rule="evenodd" clip-rule="evenodd" d="M37.7283 11.0678C37.6196 11.0243 37.4838 11.0056 37.3292 11.0471C36.6816 11.2171 35.8876 11.7314 35.2107 12.2644C35.2901 12.8844 35.3319 13.5211 35.3319 14.1847C35.3319 15.3336 35.1689 16.5862 34.8827 17.8843C35.6077 16.7666 36.3828 15.7649 37.2018 14.9541C37.674 14.4854 38.1587 14.0644 38.6559 13.6808C38.5577 12.8285 38.3613 11.9077 38.025 11.3332C37.9456 11.1964 37.8369 11.1134 37.7283 11.0678ZM34.5609 9.35693L34.5985 9.3196C35.5993 8.31174 37.6447 6.64648 39.149 6.25869C39.3705 6.20269 39.5669 6.22551 39.7215 6.28979C39.8761 6.35408 40.0328 6.47436 40.1498 6.6693C40.9353 7.99859 41.1965 10.6116 41.1861 12.028V12.0819C41.8212 11.7501 42.4793 11.4494 43.1646 11.1611C44.5937 10.5618 47.3432 9.73643 49.0146 9.96662C49.2612 9.9998 49.4471 10.1056 49.5767 10.2341C49.7062 10.3627 49.8127 10.5473 49.8462 10.792C50.0781 12.451 49.2445 15.1822 48.6427 16.5986C48.3523 17.2788 48.0494 17.932 47.7151 18.5625H47.7694C49.1964 18.5521 51.8268 18.8113 53.1681 19.5911C53.3645 19.7051 53.4857 19.8607 53.5505 20.0162C53.6153 20.1697 53.6403 20.3646 53.5818 20.5844C53.1911 22.0755 51.5134 24.1057 50.498 25.1011L50.4604 25.1385C51.1457 25.35 51.8268 25.5988 52.5163 25.8767C53.9537 26.4553 56.4859 27.8012 57.5055 29.1367C57.6559 29.3337 57.7124 29.539 57.7124 29.7215C57.7124 29.902 57.6559 30.1093 57.5055 30.3063C56.488 31.6419 53.9537 32.9878 52.5163 33.5663C51.8268 33.8442 51.1457 34.0931 50.4604 34.3046L50.498 34.3419C51.5134 35.3353 53.1911 37.3655 53.5818 38.8587C53.6382 39.0785 53.6153 39.2734 53.5505 39.4269C53.4857 39.5803 53.3645 39.7359 53.1681 39.852C51.8289 40.6317 49.1964 40.891 47.7694 40.8806H47.7151C48.0494 41.511 48.3523 42.1643 48.6427 42.8445C49.2466 44.263 50.0781 46.9921 49.8462 48.6511C49.8127 48.8958 49.7041 49.0804 49.5767 49.2089C49.4471 49.3375 49.2612 49.4433 49.0146 49.4765C47.3432 49.7066 44.5916 48.8792 43.1646 48.282C42.4793 47.9937 41.8212 47.693 41.1861 47.3612V47.4151C41.1965 48.8315 40.9353 51.4424 40.1498 52.7738C40.0349 52.9687 39.8782 53.089 39.7215 53.1533C39.5669 53.2176 39.3705 53.2425 39.149 53.1844C37.6468 52.7966 35.6014 51.1313 34.5985 50.1235L34.5609 50.0862C34.3478 50.7664 34.0971 51.4424 33.8171 52.1268C33.2342 53.5515 31.8783 56.067 30.5328 57.079C30.3343 57.2283 30.1274 57.2843 29.9436 57.2843C29.7618 57.2843 29.5529 57.2283 29.3544 57.079C28.0089 56.069 26.653 53.5535 26.07 52.1268C25.7901 51.4424 25.5394 50.7664 25.3263 50.0862L25.2887 50.1235C24.2879 51.1313 22.2425 52.7966 20.7382 53.1844C20.5167 53.2404 20.3203 53.2176 20.1657 53.1533C20.0111 53.089 19.8544 52.9687 19.7374 52.7738C18.9518 51.4445 18.6907 48.8315 18.7011 47.4151V47.3612C18.066 47.693 17.4078 47.9937 16.7226 48.282C15.2935 48.8813 12.544 49.7066 10.8725 49.4765C10.626 49.4433 10.4401 49.3354 10.3105 49.2089C10.181 49.0804 10.0744 48.8958 10.041 48.6511C9.80909 46.9921 10.6427 44.2609 11.2444 42.8445C11.5348 42.1643 11.8378 41.511 12.1721 40.8806H12.1178C10.6908 40.891 8.06036 40.6317 6.71903 39.852C6.52264 39.7379 6.40146 39.5824 6.33669 39.4269C6.27192 39.2734 6.24685 39.0785 6.30535 38.8587C6.69605 37.3676 8.37375 35.3374 9.38915 34.3419L9.42675 34.3046C8.74147 34.0931 8.06036 33.8442 7.37089 33.5663C5.93555 32.9878 3.40124 31.6419 2.38166 30.3063C2.23124 30.1093 2.17482 29.904 2.17482 29.7215C2.17482 29.5411 2.23124 29.3337 2.38166 29.1367C3.39915 27.8012 5.93346 26.4553 7.37089 25.8767C8.06036 25.5988 8.74147 25.35 9.42675 25.1385L9.38915 25.1011C8.37375 24.1078 6.69605 22.0776 6.30535 20.5844C6.24894 20.3646 6.27192 20.1697 6.33669 20.0162C6.40146 19.8627 6.52264 19.7072 6.71903 19.5911C8.05827 18.8113 10.6908 18.5521 12.1178 18.5625H12.1721C11.8378 17.932 11.5348 17.2788 11.2444 16.5986C10.6406 15.1801 9.80909 12.451 10.041 10.792C10.0744 10.5473 10.181 10.3627 10.3105 10.2341C10.4401 10.1056 10.626 9.9998 10.8725 9.96662C12.544 9.73643 15.2956 10.5639 16.7226 11.1611C17.4078 11.4494 18.066 11.7501 18.7011 12.0819V12.028C18.6907 10.6116 18.9518 8.00067 19.7374 6.6693C19.8523 6.47436 20.009 6.35408 20.1657 6.28979C20.3203 6.22551 20.5167 6.20062 20.7382 6.25869C22.2404 6.64648 24.2858 8.31174 25.2887 9.3196L25.3263 9.35693C25.5394 8.67672 25.7901 8.00067 26.07 7.31632C26.653 5.89163 28.0089 3.37612 29.3544 2.36411C29.5529 2.2148 29.7597 2.1588 29.9436 2.1588C30.1254 2.1588 30.3343 2.2148 30.5328 2.36411C31.8783 3.37404 33.2342 5.88955 33.8171 7.31632C34.0971 8.00067 34.3478 8.67672 34.5609 9.35693ZM24.6786 12.2644C24.5992 12.8844 24.5574 13.5211 24.5574 14.1847C24.5574 15.3336 24.7204 16.5862 25.0045 17.8843C24.2795 16.7666 23.5044 15.7649 22.6854 14.9541C22.2132 14.4854 21.7285 14.0644 21.2312 13.6808C21.3294 12.8285 21.5258 11.9077 21.8622 11.3332C21.9416 11.1964 22.0502 11.1134 22.1589 11.0678C22.2675 11.0243 22.4033 11.0056 22.5579 11.0471C23.2056 11.2171 23.9996 11.7314 24.6765 12.2644H24.6786ZM13.785 21.0718C14.1715 21.5653 14.5957 22.0464 15.0678 22.5151C15.8848 23.326 16.8939 24.0974 18.02 24.817C16.7121 24.535 15.4502 24.3732 14.2927 24.3732C13.6241 24.3732 12.9827 24.4147 12.358 24.4935C11.819 23.8216 11.3029 23.0336 11.1316 22.3907C11.0919 22.2372 11.1086 22.1024 11.1525 21.9946C11.1964 21.8868 11.282 21.7789 11.4199 21.7001C11.9987 21.3662 12.9263 21.1713 13.785 21.0738V21.0718ZM12.358 34.9454C12.9827 35.0242 13.6241 35.0657 14.2927 35.0657C15.4502 35.0657 16.71 34.9039 18.02 34.6219C16.8939 35.3415 15.8848 36.1109 15.0678 36.9238C14.5957 37.3925 14.1715 37.8736 13.785 38.3672C12.9263 38.2697 11.9987 38.0748 11.4199 37.7409C11.282 37.6621 11.1985 37.5542 11.1525 37.4464C11.1086 37.3386 11.0898 37.2038 11.1316 37.0503C11.3029 36.4074 11.8211 35.6194 12.358 34.9475V34.9454ZM21.2312 45.7582C21.7285 45.3745 22.2132 44.9535 22.6854 44.4848C23.5023 43.674 24.2795 42.6724 25.0045 41.5546C24.7204 42.8528 24.5574 44.1053 24.5574 45.2542C24.5574 45.9178 24.5992 46.5545 24.6786 47.1746C24.0016 47.7096 23.2077 48.2218 22.56 48.3919C22.4054 48.4313 22.2696 48.4147 22.161 48.3711C22.0523 48.3276 21.9437 48.2426 21.8643 48.1057C21.5279 47.5312 21.3315 46.6105 21.2333 45.7582H21.2312ZM35.2086 47.1746C35.288 46.5545 35.3298 45.9178 35.3298 45.2542C35.3298 44.1053 35.1668 42.8549 34.8827 41.5546C35.6077 42.6724 36.3828 43.674 37.2018 44.4848C37.674 44.9535 38.1587 45.3745 38.6559 45.7582C38.5577 46.6105 38.3613 47.5312 38.025 48.1057C37.9456 48.2426 37.8369 48.3255 37.7283 48.3711C37.6196 48.4147 37.4838 48.4333 37.3292 48.3919C36.6816 48.2218 35.8876 47.7075 35.2107 47.1746H35.2086ZM46.1022 38.3672C45.7156 37.8736 45.2915 37.3925 44.8193 36.9238C44.0024 36.113 42.9933 35.3415 41.8672 34.6219C43.1751 34.9039 44.437 35.0657 45.5945 35.0657C46.263 35.0657 46.9045 35.0242 47.5292 34.9454C48.0682 35.6173 48.5842 36.4054 48.7556 37.0482C48.7974 37.2017 48.7785 37.3365 48.7347 37.4443C48.6908 37.5522 48.6051 37.66 48.4672 37.7388C47.8885 38.0727 46.9609 38.2676 46.1022 38.3651V38.3672ZM47.5292 24.4935C46.9045 24.4147 46.263 24.3732 45.5945 24.3732C44.437 24.3732 43.1751 24.535 41.8672 24.817C42.9933 24.0974 44.0024 23.328 44.8193 22.5151C45.2915 22.0464 45.7156 21.5653 46.1022 21.0718C46.9609 21.1692 47.8885 21.3642 48.4672 21.698C48.6051 21.7769 48.6887 21.8847 48.7347 21.9925C48.7785 22.1004 48.7974 22.2352 48.7556 22.3886C48.5842 23.0315 48.0661 23.8195 47.5292 24.4914V24.4935ZM29.9436 9.53113C29.8266 9.53113 29.6929 9.56845 29.5675 9.66385C28.7067 10.315 27.8397 11.9367 27.4657 12.8554C26.8828 14.2925 26.4963 15.6716 26.4963 17.283C26.4963 20.348 28.2889 24.5682 29.9436 27.3014C31.5983 24.5682 33.3909 20.348 33.3909 17.283C33.3909 15.6695 33.0065 14.2925 32.4215 12.8554C32.0475 11.9367 31.1804 10.315 30.3197 9.66385C30.1922 9.56845 30.0606 9.53113 29.9436 9.53113ZM15.5609 15.4435C15.4773 15.5244 15.4105 15.6447 15.3896 15.8002C15.2454 16.8661 15.7866 18.6205 16.1773 19.533C16.7894 20.9598 17.4977 22.2041 18.6468 23.3446C20.8301 25.5117 25.1048 27.2371 28.2199 28.0107C27.4427 24.9166 25.7044 20.6757 23.519 18.5086C22.3699 17.368 21.1163 16.665 19.6789 16.0573C18.7596 15.6695 16.9921 15.1304 15.9182 15.2755C15.7615 15.2963 15.6403 15.3647 15.5588 15.4456L15.5609 15.4435ZM9.60225 29.7195C9.60225 29.8356 9.63777 29.9683 9.73597 30.0927C10.392 30.9471 12.0258 31.8078 12.9514 32.179C14.3993 32.7576 15.7886 33.1412 17.412 33.1412C20.5 33.1412 24.7517 31.3619 27.5054 29.7195C24.7517 28.077 20.5 26.2977 17.412 26.2977C15.7866 26.2977 14.3993 26.6793 12.9514 27.26C12.0258 27.6312 10.392 28.4918 9.73597 29.3462C9.63986 29.4727 9.60225 29.6033 9.60225 29.7195ZM15.5588 43.9954C15.6403 44.0784 15.7615 44.1447 15.9182 44.1655C16.9921 44.3086 18.7596 43.7715 19.6789 43.3837C21.1163 42.776 22.3699 42.073 23.519 40.9324C25.7023 38.7653 27.4406 34.5224 28.2199 31.4303C25.1027 32.2018 20.8301 33.9272 18.6468 36.0964C17.4977 37.237 16.7894 38.4812 16.1773 39.908C15.7866 40.8205 15.2433 42.5749 15.3896 43.6408C15.4105 43.7963 15.4794 43.9166 15.5609 43.9975L15.5588 43.9954ZM29.9415 49.9099C30.0585 49.9099 30.1922 49.8746 30.3176 49.7772C31.1784 49.126 32.0454 47.5043 32.4194 46.5856C33.0023 45.1485 33.3888 43.7694 33.3888 42.1581C33.3888 39.093 31.5962 34.8728 29.9415 32.1396C28.2889 34.8728 26.4942 39.093 26.4942 42.1581C26.4942 43.7715 26.8786 45.1485 27.4636 46.5856C27.8376 47.5043 28.7046 49.126 29.5654 49.7772C29.6929 49.8726 29.8245 49.9099 29.9415 49.9099ZM44.3242 43.9975C44.4077 43.9166 44.4746 43.7963 44.4955 43.6408C44.6397 42.5749 44.0985 40.8205 43.7078 39.908C43.0957 38.4812 42.3874 37.237 41.2383 36.0964C39.055 33.9293 34.7803 32.2039 31.6652 31.4303C32.4424 34.5244 34.1807 38.7653 36.3661 40.9324C37.5152 42.073 38.7688 42.776 40.2062 43.3837C41.1255 43.7715 42.893 44.3106 43.9669 44.1655C44.1236 44.1447 44.2448 44.0763 44.3263 43.9954L44.3242 43.9975ZM50.2807 29.7215C50.2807 29.6054 50.2452 29.4727 50.147 29.3483C49.491 28.4939 47.8572 27.6332 46.9316 27.262C45.4837 26.6834 44.0944 26.2998 42.471 26.2998C39.383 26.2998 35.1313 28.0791 32.3776 29.7215C35.1313 31.364 39.383 33.1433 42.471 33.1433C44.0964 33.1433 45.4837 32.7617 46.9316 32.1811C47.8572 31.8098 49.491 30.9492 50.147 30.0948C50.2431 29.9683 50.2807 29.8377 50.2807 29.7215ZM44.3242 15.4456C44.2427 15.3626 44.1215 15.2963 43.9648 15.2755C42.8909 15.1324 41.1234 15.6695 40.2041 16.0573C38.7667 16.665 37.5131 17.368 36.364 18.5086C34.1807 20.6757 32.4424 24.9186 31.6631 28.0107C34.7803 27.2392 39.0529 25.5138 41.2362 23.3446C42.3853 22.2041 43.0936 20.9598 43.7057 19.533C44.0964 18.6205 44.6397 16.8661 44.4934 15.8002C44.4725 15.6447 44.4036 15.5244 44.3221 15.4435L44.3242 15.4456Z" fill="#EF7D00"/>
<path d="M85.9909 48.9373V48.1306C85.9909 46.7557 87.117 45.6379 88.5022 45.6379H91.024C92.4092 45.6379 93.5353 46.7557 93.5353 48.1306V51.2309C95.1086 49.7378 97.2334 48.8191 99.5692 48.8191C104.387 48.8191 108.305 52.7199 108.305 57.5C108.305 59.891 107.327 62.0582 105.745 63.6301C104.159 65.2062 101.976 66.1809 99.5671 66.1809C97.1582 66.1809 95.1044 65.2622 93.5312 63.767C93.5082 64.4202 93.2324 65.0112 92.7957 65.4426C92.3424 65.8926 91.7135 66.1726 91.0219 66.1726H88.5252C88.0677 66.1726 87.6289 66.0502 87.2508 65.8283C86.4568 66.0585 85.6316 66.1767 84.8042 66.1767C79.9842 66.1767 76.0772 62.2987 76.0772 57.5145C76.0772 52.2657 80.7614 48.2115 85.9888 48.9331L85.9909 48.9373ZM143.935 41.3244H141.238C140.739 41.3244 140.244 41.1668 139.836 40.8806C137.701 41.565 135.327 41.453 133.257 40.6027C131.667 39.9495 130.286 38.9001 129.254 37.5356V38.9395C129.254 40.2481 128.165 41.3285 126.847 41.3285H123.96C122.643 41.3285 121.553 40.2543 121.553 38.9395C121.553 36.198 121.542 33.5041 121.542 30.7605H121.551C121.534 30.2441 121.097 29.8957 120.602 29.8957C120.23 29.8957 119.867 30.1114 119.718 30.4557C119.679 30.5448 119.658 30.6485 119.658 30.7626H119.649C119.649 33.5249 119.649 36.2001 119.649 38.9416C119.649 40.2481 118.569 41.3306 117.243 41.3306H115.832C117.071 41.4322 118.047 42.4836 118.047 43.7113V58.4892H121.427C121.971 58.4892 122.516 58.6862 122.94 59.0221L129.651 43.3173C130.923 40.4389 134.542 40.8454 135.591 43.3173C136.232 44.8291 141.056 56.1085 141.522 57.1972V43.7155C141.522 42.3965 142.611 41.3265 143.937 41.3265L143.935 41.3244ZM144.391 41.3099H149.489C154.451 41.0901 158.809 45.8142 158.809 50.7083C158.809 53.2653 157.743 55.731 155.878 57.4937L159.361 62.2427C159.751 62.6803 160.002 63.3128 160.002 63.8935C160.002 65.1149 158.964 66.1311 157.731 66.1311H154.43C153.584 66.1414 152.834 65.7184 152.341 65.0423L149.219 60.6044L149.215 63.74C149.215 65.0548 148.133 66.129 146.816 66.129H143.929C143.555 66.129 143.183 66.0315 142.849 65.8677C142.531 66.0253 142.122 66.129 141.762 66.129H138.461C136.859 66.1477 136.374 65.0133 135.894 63.7918H129.352C128.895 64.9635 128.462 66.0543 126.943 66.1269H123.487C123.151 66.1269 122.767 66.0378 122.462 65.8926C122.14 66.0461 121.783 66.129 121.425 66.129H112.751C111.426 66.129 110.344 65.0423 110.344 63.74V43.7051C110.344 42.7387 110.933 41.874 111.829 41.5027C112.502 41.2249 113.43 41.3161 114.159 41.3161C113.714 41.2788 113.273 41.1087 112.911 40.8474C112.494 41.1523 112.001 41.3203 111.478 41.3203H108.591C108.071 41.3203 107.527 41.1274 107.114 40.8143C106.934 40.9532 106.733 41.0672 106.516 41.1523C106.516 41.1523 105.72 41.3203 105.641 41.3203H102.753C101.431 41.3203 100.346 40.244 100.346 38.9312V30.7647L96.2932 39.4642C95.7521 40.5654 94.5967 41.3182 93.3557 41.3182C92.1397 41.3182 90.9279 40.5612 90.4181 39.4642L86.555 31.1691V31.2893C86.5529 35.8143 86.5592 29.2632 86.5592 38.9312C86.5592 40.244 85.4749 41.3203 84.1523 41.3203H81.2649C80.7656 41.3203 80.2704 41.1626 79.863 40.8765C78.9542 41.1689 77.9054 41.3265 76.9526 41.3265C73.0582 41.3265 69.5607 38.9935 68.0711 35.4265C67.3649 33.7323 67.1601 31.8721 67.4965 30.0699C67.4317 30.099 67.3712 30.1322 67.3106 30.1674C67.1455 30.267 66.9951 30.3935 66.8614 30.5448C66.736 30.6859 66.6315 30.8497 66.5542 31.026C66.4936 31.1649 66.4498 31.3121 66.4247 31.4635V38.9333C66.4247 40.246 65.3404 41.3223 64.0178 41.3223H61.1304C60.6186 41.3223 60.1046 41.1481 59.6951 40.8474C59.2835 41.1481 58.7716 41.3223 58.2598 41.3223H55.3724C54.873 41.3223 54.3779 41.1647 53.9704 40.8785C51.8331 41.5629 49.4638 41.453 47.3913 40.6006C45.8118 39.9515 44.437 38.9105 43.407 37.5584V38.9312C43.407 40.2377 42.3143 41.3203 41.0001 41.3203H18.908C17.6105 41.3203 16.499 40.2523 16.499 38.9312V26.9385C16.499 23.467 18.5967 20.3605 21.8413 19.056C24.5219 17.9777 27.5555 18.2763 29.954 19.8648C31.3894 18.915 33.0295 18.4256 34.7531 18.4256C39.22 18.4298 42.916 21.6421 43.3631 26.0717C45.162 23.6723 48.0452 22.2435 51.0601 22.2435C52.3993 22.2435 53.7803 22.5379 55.0026 23.0854L56.7617 22.4011C57.0835 22.2766 57.4282 22.2165 57.7729 22.2165C58.4708 22.2165 59.1978 22.5027 59.716 22.9651C60.23 22.5172 60.9445 22.2414 61.6298 22.2414C61.9766 22.2414 62.3798 22.3119 62.6974 22.4467L64.4211 23.1186C65.2547 22.7723 66.2346 22.5089 67.1225 22.3637C68.2487 22.1771 69.6506 22.0713 70.5281 22.9423C70.854 23.2638 71.0859 23.7096 71.1841 24.1555C72.8451 22.9237 74.878 22.2435 76.9547 22.2435C78.2919 22.2435 79.6771 22.5379 80.8972 23.0854L82.6564 22.4011C83.4148 22.1066 84.2526 22.175 84.9755 22.5359C85.3182 22.3534 85.7214 22.2435 86.1121 22.2435H89.4132C90.3972 22.231 91.2079 22.7868 91.6132 23.6619L93.3619 27.6643L95.0167 23.8797C95.33 22.9216 96.2493 22.2559 97.2564 22.2435H100.378C100.219 21.0863 100.643 19.8627 101.475 19.0374C102.183 18.3344 103.202 17.9155 104.205 17.9155C105.208 17.9155 106.215 18.3302 106.928 19.0374C106.94 19.0498 108.365 18.436 108.599 18.436H111.487C111.998 18.436 112.512 18.6102 112.924 18.9109C113.336 18.6102 113.847 18.436 114.359 18.436H117.247C118.557 18.436 119.654 19.5164 119.654 20.825V22.2953C121.074 22.1418 122.599 22.3471 123.922 22.876C125.957 23.6889 127.593 25.2359 128.493 27.2247C130.169 24.1638 133.416 22.2476 136.93 22.2476C138.267 22.2476 139.652 22.5421 140.872 23.0896L142.632 22.4052C143.313 22.1398 144.063 22.1688 144.736 22.4425C145.674 22.822 146.342 23.6453 146.501 24.6387C147.385 23.4732 148.684 22.623 150.207 22.2829C152.984 21.6628 156.039 22.4674 158.12 24.4023C159.473 25.6611 159.494 26.7934 158.218 28.075C158.333 27.965 157.115 29.1927 156.755 29.5577C159.718 31.3495 160.888 35.0325 159.114 38.0831C157.723 40.4741 155.017 41.5131 152.315 41.3327C150.212 41.1917 148.06 40.329 146.541 38.8545C146.541 40.1237 145.653 41.1834 144.399 41.314L144.391 41.3099Z" fill="white"/>
<path fill-rule="evenodd" clip-rule="evenodd" d="M84.8063 50.9447C85.9638 50.9447 87.0899 51.2413 88.0948 51.8116V48.1326C88.0948 47.9108 88.2766 47.7303 88.5002 47.7303H91.0219C91.2455 47.7303 91.4273 47.9128 91.4273 48.1326V63.684C91.4273 63.9059 91.2434 64.0863 91.0219 64.0863H88.5252C88.3017 64.0863 88.1199 63.9287 88.1199 63.7068V63.2112H88.1178C87.1442 63.7711 86.0139 64.0905 84.8063 64.0905C81.1479 64.0905 78.1832 61.1478 78.1832 57.5165C78.1832 53.8853 81.1479 50.9426 84.8063 50.9426V50.9447ZM129.369 57.9894L132.442 50.1235C132.476 50.0385 132.574 49.9949 132.659 50.0281C132.705 50.0447 132.739 50.0799 132.756 50.1235L135.862 58.0039C135.896 58.0889 135.854 58.1864 135.766 58.2196C135.745 58.2279 135.724 58.232 135.706 58.232H129.521C129.429 58.232 129.352 58.1574 129.352 58.064C129.352 58.0371 129.358 58.0122 129.369 57.9914V57.9894ZM141.76 64.0428C141.802 64.0428 141.844 64.0324 141.879 64.0158C141.921 63.9951 141.959 63.964 141.984 63.9246C142.009 63.8852 142.026 63.8375 142.026 63.7815C142.026 63.7255 142.011 63.6653 141.98 63.6011C141.978 63.5948 141.976 63.5907 141.973 63.5845L133.631 44.0577C133.232 43.2157 131.968 43.2157 131.569 44.0577L123.27 63.5948L123.266 63.6031C123.235 63.6695 123.22 63.7296 123.22 63.7835C123.22 63.8375 123.235 63.8872 123.262 63.9266L123.266 63.9349C123.291 63.9702 123.327 63.9992 123.366 64.0179C123.402 64.0345 123.444 64.0448 123.485 64.0448H126.841C126.889 64.0448 126.931 64.0303 126.964 64.0034L126.972 63.9971C127.014 63.964 127.05 63.9121 127.077 63.8541L127.875 61.8134C127.9 61.7471 127.965 61.7077 128.032 61.7077H137.21C137.285 61.7077 137.348 61.7575 137.371 61.8238L138.173 63.8582C138.202 63.9183 138.238 63.9702 138.284 64.0034C138.317 64.0283 138.359 64.0448 138.407 64.0448H141.762L141.76 64.0428ZM157.781 63.6259L153.084 57.22C153.084 57.22 153.074 57.2076 153.07 57.1993C153.022 57.1205 153.049 57.0188 153.128 56.9711C154.219 56.322 155.126 55.4013 155.752 54.3022C156.358 53.2425 156.703 52.0169 156.703 50.7104C156.703 48.6946 155.88 46.8697 154.549 45.5508C153.218 44.2298 151.379 43.4127 149.351 43.4127H143.927C143.843 43.4127 143.768 43.448 143.714 43.5019C143.66 43.5558 143.624 43.6305 143.624 43.7134V63.7421C143.624 63.825 143.657 63.8997 143.714 63.9536C143.768 64.0075 143.843 64.0407 143.927 64.0407H146.814C146.894 64.0407 146.967 64.0096 147.021 63.9598L147.027 63.9536C147.082 63.8976 147.117 63.8229 147.117 63.7421L147.138 46.596C147.138 46.5047 147.213 46.4301 147.305 46.4301H148.208L148.22 46.428C149.848 46.428 151.095 47.0273 151.935 47.9108C152.775 48.7942 153.208 49.9617 153.21 51.0961V51.1044C153.21 52.2118 152.821 53.2466 152.138 54.0678C151.467 54.8745 150.512 55.4718 149.367 55.7289C149.196 55.7663 149.027 55.8077 148.912 55.8845C148.816 55.9488 148.751 56.0504 148.751 56.2246C148.751 56.2806 148.787 56.349 148.82 56.4112L148.826 56.4195L148.833 56.432C148.864 56.4921 148.922 56.5709 148.983 56.6497L148.989 56.658C149.014 56.6933 149.044 56.7285 149.083 56.7866L154.035 63.8126L154.041 63.8209C154.091 63.8893 154.15 63.9515 154.21 63.9909L154.219 63.9951C154.267 64.0262 154.319 64.0448 154.373 64.0448H157.729C157.775 64.0448 157.817 64.0324 157.844 64.0117C157.858 63.9992 157.873 63.9847 157.881 63.9681C157.89 63.9494 157.896 63.9266 157.896 63.8976C157.896 63.825 157.863 63.7358 157.783 63.6301L157.781 63.6259ZM115.638 43.4086H112.751C112.667 43.4086 112.592 43.4417 112.537 43.4977C112.483 43.5537 112.448 43.6284 112.448 43.7093V63.7441C112.448 63.8271 112.481 63.9018 112.537 63.9557C112.592 64.0096 112.669 64.0448 112.751 64.0448H121.425C121.507 64.0448 121.582 64.0117 121.636 63.9598H121.638V63.9577C121.693 63.9038 121.726 63.8292 121.726 63.7462V60.8802C121.726 60.7973 121.693 60.7226 121.636 60.6687C121.582 60.6148 121.507 60.5795 121.423 60.5795H116.108C116.014 60.5795 115.939 60.5049 115.939 60.4116V43.7113C115.939 43.6325 115.907 43.5599 115.857 43.506L115.851 43.4998C115.797 43.4459 115.722 43.4106 115.638 43.4106V43.4086ZM105.438 20.5118C105.12 20.1966 104.682 20.0017 104.195 20.0017C103.708 20.0017 103.269 20.1966 102.952 20.5118C102.634 20.8271 102.438 21.2626 102.438 21.7457C102.438 22.2289 102.634 22.6644 102.952 22.9797C103.269 23.2949 103.708 23.4898 104.195 23.4898C104.682 23.4898 105.112 23.2969 105.43 22.9879L105.438 22.9797C105.756 22.6644 105.952 22.2289 105.952 21.7457C105.952 21.2626 105.756 20.8271 105.438 20.5118ZM100.723 24.3587C100.687 24.3421 100.645 24.3318 100.603 24.3318H97.248C97.2 24.3318 97.1582 24.3463 97.1247 24.3732C97.0788 24.4085 97.0391 24.4645 97.0098 24.5267L93.5082 32.5336C93.4915 32.5709 93.4622 32.602 93.4204 32.6207C93.3348 32.658 93.2366 32.6186 93.2011 32.5336L89.7015 24.5288V24.5246C89.6722 24.4645 89.6367 24.4126 89.5928 24.3774L89.5845 24.3712C89.5511 24.3463 89.5093 24.3297 89.4612 24.3297H86.1058C86.064 24.3297 86.0222 24.3401 85.9867 24.3566C85.947 24.3753 85.9115 24.4043 85.8864 24.4396L85.8823 24.4479C85.8572 24.4873 85.8405 24.535 85.8405 24.591C85.8405 24.647 85.8551 24.705 85.8864 24.7693V24.7756L92.3256 38.5932C92.4071 38.7674 92.5659 38.9292 92.756 39.0494C92.942 39.1656 93.1551 39.2402 93.3577 39.2402C93.5583 39.2402 93.7735 39.1656 93.9595 39.0494C94.1475 38.9312 94.3021 38.7716 94.3857 38.6015L94.3899 38.5932L100.827 24.7756C100.858 24.7071 100.873 24.6449 100.873 24.591C100.873 24.5371 100.858 24.4873 100.831 24.4479C100.806 24.4085 100.768 24.3774 100.727 24.3566L100.723 24.3587ZM111.478 20.5222H108.591C108.507 20.5222 108.432 20.5554 108.378 20.6114C108.323 20.6653 108.288 20.74 108.288 20.8229V38.9354C108.288 39.0183 108.321 39.093 108.378 39.1469C108.432 39.2008 108.507 39.234 108.591 39.234H111.478C111.562 39.234 111.637 39.2008 111.691 39.1448C111.746 39.0909 111.781 39.0142 111.781 38.9333V20.8208C111.781 20.742 111.75 20.6695 111.7 20.6155L111.693 20.6093C111.639 20.5554 111.564 20.5201 111.48 20.5201L111.478 20.5222ZM105.639 24.3193H102.751C102.668 24.3193 102.592 24.3525 102.538 24.4085C102.484 24.4645 102.448 24.5371 102.448 24.62V38.9354C102.448 39.0183 102.482 39.093 102.538 39.1469C102.592 39.2008 102.668 39.2361 102.751 39.2361H105.639C105.718 39.2361 105.791 39.205 105.845 39.1552L105.852 39.149C105.906 39.0951 105.942 39.0204 105.942 38.9375V24.6221C105.942 24.5391 105.908 24.4645 105.854 24.4106C105.799 24.3566 105.722 24.3214 105.641 24.3214L105.639 24.3193ZM68.3489 24.3318C67.8893 24.3318 67.1372 24.45 66.3683 24.6594C65.7269 24.8336 65.0771 25.07 64.5778 25.3583C64.5318 25.3853 64.4775 25.3873 64.4315 25.3687L61.8659 24.3691L61.8575 24.3649C61.8262 24.3525 61.7907 24.3442 61.7551 24.338C61.7133 24.3318 61.6674 24.3297 61.6193 24.3297C61.4 24.3297 61.2036 24.4168 61.0594 24.5578C60.9152 24.6988 60.8254 24.8938 60.8212 25.1094V38.9354C60.8212 39.0183 60.8547 39.093 60.9111 39.1469C60.9675 39.2008 61.0406 39.2361 61.1242 39.2361H64.0116C64.0951 39.2361 64.1704 39.2029 64.2247 39.1469C64.279 39.093 64.3145 39.0183 64.3145 38.9354V31.3868C64.3145 31.3868 64.3145 31.3661 64.3166 31.3557C64.4023 30.5262 64.7512 29.7713 65.2777 29.1761C65.8146 28.5685 66.5354 28.1227 67.3523 27.9236C67.7326 27.8323 68.2236 27.8344 68.6414 27.8365H68.8107C68.8984 27.8365 68.9799 27.8033 69.0384 27.7431C69.0927 27.6851 69.1282 27.6021 69.1282 27.4984V24.647H69.1262C69.1262 24.5661 69.0927 24.4832 69.03 24.4209L69.0238 24.4147C68.9715 24.367 68.9005 24.3338 68.8107 24.3338H68.3448L68.3489 24.3318ZM136.938 27.7826C138.048 27.7826 139.055 28.2284 139.782 28.9522C140.509 29.6738 140.96 30.6713 140.96 31.7746C140.96 32.8779 140.511 33.8753 139.782 34.597C139.055 35.3187 138.05 35.7666 136.938 35.7666C135.827 35.7666 134.822 35.3208 134.095 34.597C133.368 33.8753 132.916 32.8779 132.916 31.7746C132.916 30.6713 133.366 29.6738 134.095 28.9522C134.822 28.2305 135.827 27.7826 136.938 27.7826ZM138.869 24.5868C138.238 24.4189 137.586 24.3338 136.924 24.3338C134.849 24.3338 132.973 25.1675 131.613 26.5175C130.255 27.8655 129.413 29.7298 129.413 31.7891C129.413 33.8484 130.253 35.7107 131.613 37.0607C132.971 38.4087 134.849 39.2444 136.924 39.2444C137.596 39.2444 138.25 39.1573 138.869 38.9914C139.506 38.8213 140.11 38.5704 140.67 38.251C140.691 38.2365 140.718 38.2282 140.745 38.2241C140.751 38.2241 140.76 38.2241 140.766 38.2241C140.858 38.2241 140.935 38.2987 140.935 38.3921V38.9665C140.935 39.0453 140.966 39.1117 141.017 39.1573C141.071 39.2091 141.15 39.2382 141.238 39.2382H144.125C144.209 39.2382 144.284 39.205 144.339 39.149C144.393 39.0951 144.428 39.0204 144.428 38.9375C144.428 37.7181 144.428 34.8936 144.433 32.0711C144.433 29.7444 144.435 27.4155 144.435 25.0866C144.433 24.871 144.341 24.676 144.196 24.535C144.052 24.394 143.856 24.3069 143.637 24.3069C143.591 24.3069 143.545 24.309 143.503 24.3152C143.463 24.3214 143.423 24.3297 143.39 24.3442L140.824 25.3438C140.778 25.3624 140.724 25.3583 140.678 25.3334C140.106 25.0057 139.5 24.7569 138.869 24.5889V24.5868ZM76.9631 27.7826C78.0725 27.7826 79.0795 28.2284 79.8066 28.9522C80.5337 29.6738 80.985 30.6713 80.985 31.7746C80.985 32.8779 80.5358 33.8753 79.8066 34.597C79.0795 35.3187 78.0746 35.7666 76.9631 35.7666C75.8516 35.7666 74.8466 35.3208 74.1196 34.597C73.3925 33.8753 72.9412 32.8779 72.9412 31.7746C72.9412 30.6713 73.3904 29.6738 74.1196 28.9522C74.8466 28.2305 75.8516 27.7826 76.9631 27.7826ZM78.8936 24.5868C78.2626 24.4189 77.6108 24.3338 76.9485 24.3338C74.8738 24.3338 72.9976 25.1675 71.6375 26.5175C70.2794 27.8655 69.4375 29.7298 69.4375 31.7891C69.4375 33.8484 70.2774 35.7107 71.6375 37.0607C72.9955 38.4087 74.8738 39.2444 76.9485 39.2444C77.6212 39.2444 78.2752 39.1573 78.8936 38.9914C79.5308 38.8213 80.1346 38.5704 80.6946 38.251C80.7155 38.2365 80.7426 38.2282 80.7698 38.2241C80.776 38.2241 80.7844 38.2241 80.7907 38.2241C80.8847 38.2241 80.9599 38.2987 80.9599 38.3921V38.9665C80.9599 39.0453 80.9912 39.1117 81.0414 39.1573C81.0957 39.2091 81.1751 39.2382 81.2628 39.2382H84.1502C84.2338 39.2382 84.309 39.205 84.3634 39.149C84.4177 39.093 84.4532 39.0204 84.4532 38.9375C84.4532 37.7181 84.4532 34.8936 84.4574 32.0711C84.4574 29.7444 84.4595 27.4155 84.4595 25.0866C84.4574 24.871 84.3654 24.676 84.2213 24.535C84.0771 24.394 83.8807 24.3069 83.6614 24.3069C83.6154 24.3069 83.5694 24.309 83.5276 24.3152C83.4879 24.3214 83.4482 24.3297 83.4148 24.3442L80.8492 25.3438C80.8032 25.3624 80.7489 25.3583 80.7029 25.3334C80.1305 25.0057 79.5246 24.7569 78.8936 24.5889V24.5868ZM51.0663 27.7826C52.1757 27.7826 53.1828 28.2284 53.9098 28.9522C54.6369 29.6738 55.0882 30.6713 55.0882 31.7746C55.0882 32.8779 54.639 33.8753 53.9098 34.597C53.1828 35.3187 52.1778 35.7666 51.0663 35.7666C49.9548 35.7666 48.9499 35.3208 48.2228 34.597C47.4957 33.8753 47.0444 32.8779 47.0444 31.7746C47.0444 30.6713 47.4936 29.6738 48.2228 28.9522C48.9499 28.2305 49.9548 27.7826 51.0663 27.7826ZM52.9968 24.5868C52.3659 24.4189 51.714 24.3338 51.0517 24.3338C48.977 24.3338 47.1008 25.1675 45.7407 26.5175C44.3827 27.8655 43.5407 29.7298 43.5407 31.7891C43.5407 33.8484 44.3806 35.7107 45.7407 37.0607C47.0988 38.4087 48.977 39.2444 51.0517 39.2444C51.7245 39.2444 52.3784 39.1573 52.9968 38.9914C53.6341 38.8213 54.2379 38.5704 54.7978 38.251C54.8187 38.2365 54.8459 38.2282 54.873 38.2241C54.8793 38.2241 54.8876 38.2241 54.8939 38.2241C54.9858 38.2241 55.0631 38.2987 55.0631 38.3921V38.9665C55.0631 39.0453 55.0945 39.1117 55.1446 39.1573C55.1989 39.2091 55.2783 39.2382 55.3661 39.2382H58.2535C58.3371 39.2382 58.4123 39.205 58.4666 39.149C58.5209 39.0951 58.5564 39.0204 58.5564 38.9375C58.5564 37.7181 58.5564 34.8936 58.5606 32.0711C58.5606 29.7444 58.5627 27.4155 58.5627 25.0866C58.5606 24.871 58.4687 24.676 58.3245 24.535C58.1804 24.394 57.984 24.3069 57.7646 24.3069C57.7186 24.3069 57.6727 24.309 57.6309 24.3152C57.5912 24.3214 57.5515 24.3297 57.5181 24.3442L54.9524 25.3438C54.9064 25.3624 54.8521 25.3583 54.8062 25.3334C54.2337 25.0057 53.6278 24.7569 52.9968 24.5889V24.5868ZM31.6881 33.5995C31.6881 31.6834 31.6881 29.9248 31.6881 26.9385C31.6881 26.1297 32.035 25.3915 32.5907 24.8544C33.1465 24.3172 33.9112 23.9834 34.7427 23.9834C35.5742 23.9834 36.341 24.311 36.8947 24.8461C37.4441 25.377 37.7889 26.1131 37.7993 26.9385V38.9333C37.7993 39.0163 37.8328 39.0909 37.8892 39.1448C37.9456 39.1988 38.0187 39.234 38.1023 39.234H40.9897C41.0732 39.234 41.1485 39.2008 41.2049 39.1448C41.2592 39.0909 41.2926 39.0163 41.2926 38.9333V26.9406C41.2926 25.1385 40.5781 23.5271 39.3976 22.3679C38.2235 21.2149 36.5896 20.5098 34.7427 20.5077C33.8443 20.5077 32.9877 20.686 32.2084 21.0116C31.3977 21.3497 30.6707 21.8453 30.0648 22.4591V22.4633C29.9979 22.5276 29.8914 22.5276 29.8266 22.4633C29.2207 21.8494 28.4936 21.3538 27.683 21.0158C26.9037 20.6902 26.0471 20.5118 25.1466 20.5118C23.3164 20.5118 21.6784 21.2211 20.4979 22.3803C19.3175 23.5396 18.5946 25.1468 18.5946 26.9406V38.9333C18.5946 39.0163 18.628 39.0909 18.6844 39.1448C18.7408 39.1988 18.816 39.234 18.8996 39.234H21.787C21.8706 39.234 21.9458 39.2008 21.998 39.1469C22.0523 39.093 22.0858 39.0183 22.0858 38.9333V26.9364C22.1046 26.1173 22.4535 25.377 23.0071 24.844C23.5587 24.3131 24.3109 23.9854 25.1445 23.9854H25.1466C25.9802 23.9854 26.7407 24.3214 27.2944 24.8544C27.848 25.3915 28.1928 26.1297 28.1928 26.9385V38.9312C28.1928 39.0142 28.2262 39.0889 28.2826 39.1428C28.339 39.1967 28.4142 39.2319 28.4957 39.2319H31.3831C31.4667 39.2319 31.5419 39.1988 31.5962 39.1428C31.6505 39.0868 31.6861 39.0142 31.6861 38.9312V33.5995H31.6881ZM153.96 28.3383C154.511 28.6121 154.678 28.6701 155.017 28.3259L156.59 26.7228C156.778 26.5362 157.094 26.3122 156.667 25.9161C155.1 24.4583 152.748 23.8424 150.654 24.311C148.521 24.788 147.053 26.727 147.41 28.9667C147.575 29.9994 148.181 31.0965 149.614 31.9198L149.62 31.9239L149.662 31.9467L153.444 34.0786C154.752 34.8272 154.131 36.1005 152.595 35.9097C151.664 35.7936 150.694 35.3021 150.088 34.5825C149.746 34.176 149.303 34.1304 148.954 34.4975L147.422 36.1026C147.238 36.2851 147.282 36.5775 147.546 36.8844C147.888 37.2847 148.285 37.6662 148.774 38.0022C150.734 39.3481 153.776 39.7856 155.874 38.4771C158.481 36.8492 158.596 33.0168 155.537 31.2644L151.379 28.8837C150.659 28.471 150.746 27.4072 151.795 27.4342C152.635 27.4549 153.254 27.936 153.953 28.3404L153.96 28.3383ZM117.543 34.8936C117.543 34.1553 117.548 33.4502 117.548 30.7626C117.548 29.9538 117.894 29.2135 118.448 28.6764C119.002 28.1413 119.764 27.8054 120.596 27.8054C121.427 27.8054 122.19 28.1309 122.742 28.666C123.289 29.1969 123.634 29.9331 123.642 30.7584C123.642 33.3901 123.644 34.1221 123.646 34.8438C123.648 35.6712 123.652 36.4862 123.652 38.9395C123.652 39.0183 123.684 39.0909 123.734 39.1448L123.742 39.1511C123.797 39.205 123.872 39.2402 123.955 39.2402H126.843C126.922 39.2402 126.995 39.2091 127.05 39.1594L127.056 39.1531C127.11 39.0992 127.146 39.0246 127.146 38.9416V30.7626C127.146 28.9605 126.431 27.3491 125.251 26.1899C124.079 25.0369 122.443 24.3318 120.596 24.3297C120.101 24.3297 119.616 24.3836 119.15 24.4873C118.676 24.5931 118.218 24.7527 117.786 24.956C117.763 24.9684 117.736 24.9746 117.708 24.9746C117.614 24.9746 117.539 24.9 117.539 24.8067V20.8229C117.539 20.7441 117.508 20.6715 117.458 20.6176L117.451 20.6114C117.397 20.5575 117.322 20.5222 117.238 20.5222H114.351C114.267 20.5222 114.192 20.5554 114.138 20.6114C114.084 20.6653 114.048 20.74 114.048 20.8229V38.9375C114.048 39.0204 114.081 39.0951 114.138 39.149C114.192 39.2029 114.267 39.2361 114.351 39.2361H117.238C117.322 39.2361 117.397 39.2029 117.451 39.1469C117.506 39.093 117.539 39.0183 117.539 38.9354C117.539 36.5962 117.541 35.7231 117.543 34.8894V34.8936ZM84.8167 54.2089C86.6511 54.2089 88.1387 55.6854 88.1387 57.5062C88.1387 59.327 86.6511 60.8035 84.8167 60.8035C82.9823 60.8035 81.4948 59.327 81.4948 57.5062C81.4948 55.6854 82.9823 54.2089 84.8167 54.2089ZM99.565 50.9115C103.228 50.9115 106.196 53.8625 106.196 57.5041C106.196 61.1457 103.228 64.0967 99.565 64.0967C95.9025 64.0967 92.9336 61.1457 92.9336 57.5041C92.9336 53.8625 95.9025 50.9115 99.565 50.9115ZM99.565 54.2006C101.399 54.2006 102.887 55.6792 102.887 57.5041C102.887 59.329 101.399 60.8077 99.565 60.8077C97.7306 60.8077 96.2431 59.329 96.2431 57.5041C96.2431 55.6792 97.7306 54.2006 99.565 54.2006Z" fill="black"/>
</svg>
