<svg width="22" height="22" viewBox="0 0 22 22" fill="none" xmlns="http://www.w3.org/2000/svg">
<path d="M8.07227 18.3201C8.07227 19.2893 8.86081 20.0779 9.83005 20.0779C10.7993 20.0779 11.5878 19.2893 11.5878 18.3201C11.5878 17.3508 10.7993 16.5623 9.83005 16.5623C8.86081 16.5623 8.07227 17.3508 8.07227 18.3201ZM9.83005 17.7341C10.1531 17.7341 10.416 17.997 10.416 18.3201C10.416 18.6432 10.1531 18.906 9.83005 18.906C9.50697 18.906 9.24412 18.6432 9.24412 18.3201C9.24412 17.997 9.50697 17.7341 9.83005 17.7341Z" fill="#FF0066"/>
<path d="M13.9707 18.3201C13.9707 19.2893 14.7592 20.0779 15.7285 20.0779C16.6977 20.0779 17.4863 19.2893 17.4863 18.3201C17.4863 17.3508 16.6977 16.5623 15.7285 16.5623C14.7592 16.5623 13.9707 17.3508 13.9707 18.3201ZM15.7285 17.7341C16.0516 17.7341 16.3144 17.997 16.3144 18.3201C16.3144 18.6432 16.0516 18.906 15.7285 18.906C15.4054 18.906 15.1426 18.6432 15.1426 18.3201C15.1426 17.997 15.4054 17.7341 15.7285 17.7341Z" fill="#FF0066"/>
<path d="M20.4157 4.84371H5.58458C5.38396 4.14142 5.197 3.48705 5.03642 2.92499C4.96459 2.67343 4.73463 2.5 4.47303 2.5H1.58788C1.26429 2.5 1.00195 2.76234 1.00195 3.08593C1.00195 3.40952 1.26429 3.67186 1.58788 3.67186H4.03105C4.68627 5.96542 6.21804 11.3268 6.86022 13.5744L6.63823 14.0184C6.05328 15.1884 6.90518 16.5623 8.21047 16.5623H18.072C18.3956 16.5623 18.6579 16.2999 18.6579 15.9764C18.6579 15.6528 18.3956 15.3904 18.072 15.3904H8.21047C7.7747 15.3904 7.49169 14.9319 7.68638 14.5425L7.84833 14.2186H18.072C18.3336 14.2186 18.5635 14.0452 18.6354 13.7936L20.9791 5.59062C21.0859 5.21699 20.8052 4.84371 20.4157 4.84371ZM17.6301 13.0467H7.92821C7.60896 11.9293 6.71546 8.80205 5.91938 6.01557H19.639L17.6301 13.0467Z" fill="#FF0066"/>
</svg>
