<svg width="16" height="16" viewBox="0 0 16 16" fill="none" xmlns="http://www.w3.org/2000/svg">
<path d="M6.95 11.4502L12.2375 6.16268L11.1875 5.11268L6.95 9.35018L4.8125 7.21268L3.7625 8.26268L6.95 11.4502ZM8 15.5002C6.9625 15.5002 5.9875 15.3033 5.075 14.9096C4.1625 14.5158 3.36875 13.9814 2.69375 13.3064C2.01875 12.6314 1.48438 11.8377 1.09063 10.9252C0.696875 10.0127 0.5 9.03768 0.5 8.00018C0.5 6.96268 0.696875 5.98768 1.09063 5.07518C1.48438 4.16268 2.01875 3.36893 2.69375 2.69393C3.36875 2.01893 4.1625 1.48456 5.075 1.09081C5.9875 0.697058 6.9625 0.500183 8 0.500183C9.0375 0.500183 10.0125 0.697058 10.925 1.09081C11.8375 1.48456 12.6313 2.01893 13.3063 2.69393C13.9813 3.36893 14.5156 4.16268 14.9094 5.07518C15.3031 5.98768 15.5 6.96268 15.5 8.00018C15.5 9.03768 15.3031 10.0127 14.9094 10.9252C14.5156 11.8377 13.9813 12.6314 13.3063 13.3064C12.6313 13.9814 11.8375 14.5158 10.925 14.9096C10.0125 15.3033 9.0375 15.5002 8 15.5002Z" fill="white"/>
</svg>
