<svg width="16" height="16" viewBox="0 0 16 16" fill="none" xmlns="http://www.w3.org/2000/svg">
<mask id="mask0_4467_444" style="mask-type:alpha" maskUnits="userSpaceOnUse" x="0" y="0" width="17" height="16">
<rect x="0.00195312" width="16" height="16" fill="#D9D9D9"/>
</mask>
<g mask="url(#mask0_4467_444)">
<path d="M3.33529 14.6667C2.96862 14.6667 2.65473 14.5361 2.39362 14.275C2.13251 14.0139 2.00195 13.7 2.00195 13.3333V5.33334C2.00195 4.96667 2.13251 4.65278 2.39362 4.39167C2.65473 4.13056 2.96862 4.00001 3.33529 4.00001H4.66862C4.66862 3.07778 4.99362 2.29167 5.64362 1.64167C6.29362 0.991672 7.07973 0.666672 8.00195 0.666672C8.92418 0.666672 9.71029 0.991672 10.3603 1.64167C11.0103 2.29167 11.3353 3.07778 11.3353 4.00001H12.6686C13.0353 4.00001 13.3492 4.13056 13.6103 4.39167C13.8714 4.65278 14.002 4.96667 14.002 5.33334V13.3333C14.002 13.7 13.8714 14.0139 13.6103 14.275C13.3492 14.5361 13.0353 14.6667 12.6686 14.6667H3.33529ZM3.33529 13.3333H12.6686V5.33334H3.33529V13.3333ZM8.00195 9.33334C8.92418 9.33334 9.71029 9.00834 10.3603 8.35834C11.0103 7.70834 11.3353 6.92223 11.3353 6.00001H10.002C10.002 6.55556 9.80751 7.02778 9.41862 7.41667C9.02973 7.80556 8.55751 8.00001 8.00195 8.00001C7.4464 8.00001 6.97418 7.80556 6.58529 7.41667C6.1964 7.02778 6.00195 6.55556 6.00195 6.00001H4.66862C4.66862 6.92223 4.99362 7.70834 5.64362 8.35834C6.29362 9.00834 7.07973 9.33334 8.00195 9.33334ZM6.00195 4.00001H10.002C10.002 3.44445 9.80751 2.97223 9.41862 2.58334C9.02973 2.19445 8.55751 2.00001 8.00195 2.00001C7.4464 2.00001 6.97418 2.19445 6.58529 2.58334C6.1964 2.97223 6.00195 3.44445 6.00195 4.00001Z" fill="#FF0066"/>
</g>
</svg>
