<svg width="16" height="16" viewBox="0 0 16 16" fill="none" xmlns="http://www.w3.org/2000/svg">
<mask id="mask0_4467_439" style="mask-type:alpha" maskUnits="userSpaceOnUse" x="0" y="0" width="17" height="16">
<rect x="0.00195312" width="16" height="16" fill="#D9D9D9"/>
</mask>
<g mask="url(#mask0_4467_439)">
<path d="M14.6688 4.00001V12C14.6688 12.3667 14.5382 12.6806 14.2771 12.9417C14.016 13.2028 13.7021 13.3333 13.3354 13.3333H2.66878C2.30212 13.3333 1.98823 13.2028 1.72712 12.9417C1.466 12.6806 1.33545 12.3667 1.33545 12V4.00001C1.33545 3.63334 1.466 3.31945 1.72712 3.05834C1.98823 2.79723 2.30212 2.66667 2.66878 2.66667H13.3354C13.7021 2.66667 14.016 2.79723 14.2771 3.05834C14.5382 3.31945 14.6688 3.63334 14.6688 4.00001ZM2.66878 5.33334H13.3354V4.00001H2.66878V5.33334ZM2.66878 8.00001V12H13.3354V8.00001H2.66878Z" fill="#FF0066"/>
</g>
</svg>
