<svg width="16" height="17" viewBox="0 0 16 17" fill="none" xmlns="http://www.w3.org/2000/svg">
<g clip-path="url(#clip0_4677_7586)">
<path fill-rule="evenodd" clip-rule="evenodd" d="M13.3059 3.17206C11.9026 1.76709 10.0363 0.993011 8.04807 0.992188C3.95108 0.992188 0.61673 4.32645 0.615082 8.42453C0.614532 9.73456 0.956757 11.0134 1.60724 12.1406L0.552734 15.9922L4.49307 14.9586C5.5788 15.5508 6.80112 15.8629 8.04504 15.8633H8.04816C12.1447 15.8633 15.4794 12.5287 15.481 8.43048C15.4818 6.44434 14.7094 4.57693 13.3059 3.17206ZM8.04807 14.608H8.0455C6.93698 14.6075 5.84979 14.3096 4.90112 13.7469L4.67563 13.6129L2.33737 14.2263L2.96149 11.9466L2.81454 11.7128C2.19611 10.7292 1.86954 9.59229 1.87009 8.42499C1.87137 5.01877 4.64285 2.24756 8.05054 2.24756C9.70068 2.24811 11.2519 2.89154 12.4182 4.0593C13.5846 5.22705 14.2266 6.77924 14.226 8.43002C14.2246 11.8365 11.4533 14.608 8.04807 14.608ZM11.4368 9.98102C11.2511 9.888 10.338 9.43884 10.1677 9.37677C9.99759 9.31479 9.87363 9.28394 9.74994 9.46979C9.62607 9.65564 9.2702 10.074 9.1618 10.1979C9.05341 10.3219 8.94519 10.3374 8.75943 10.2444C8.57367 10.1515 7.97528 9.95529 7.26584 9.32257C6.71378 8.83011 6.34106 8.22192 6.23267 8.03607C6.12445 7.85004 6.23175 7.75922 6.31415 7.65704C6.5152 7.40738 6.71652 7.14563 6.77841 7.02176C6.84039 6.8978 6.80936 6.78931 6.76285 6.69638C6.71652 6.60345 6.34509 5.6893 6.19037 5.31732C6.03949 4.95532 5.88651 5.00421 5.77243 4.99854C5.66422 4.99313 5.54034 4.99203 5.41647 4.99203C5.29269 4.99203 5.09146 5.03845 4.92117 5.22449C4.75098 5.41043 4.27124 5.85968 4.27124 6.77383C4.27124 7.68799 4.93674 8.57111 5.02957 8.69507C5.12241 8.81903 6.33923 10.6949 8.20224 11.4993C8.64536 11.6909 8.99124 11.805 9.26105 11.8906C9.70599 12.032 10.1107 12.012 10.4308 11.9642C10.7877 11.9109 11.5295 11.5149 11.6844 11.0811C11.8392 10.6472 11.8392 10.2755 11.7927 10.1979C11.7463 10.1205 11.6225 10.074 11.4368 9.98102Z" fill="#1C1C1C"/>
</g>
<defs>
<clipPath id="clip0_4677_7586">
<rect width="16" height="16" fill="white" transform="translate(0 0.5)"/>
</clipPath>
</defs>
</svg>
