<svg width="57" height="18" viewBox="0 0 57 18" fill="none" xmlns="http://www.w3.org/2000/svg">
<g clip-path="url(#clip0_4083_10832)">
<path d="M17.55 7.79399C17.5495 7.79358 17.5491 7.79303 17.5487 7.79262L10.2061 0.450303C9.89309 0.137192 9.47698 -0.0351562 9.03437 -0.0351562C8.59175 -0.0351562 8.17565 0.137192 7.86254 0.450303L0.523793 7.78891C0.521321 7.79138 0.518711 7.79399 0.516377 7.79646C-0.126325 8.44287 -0.125226 9.49166 0.519535 10.1364C0.814107 10.4311 1.20302 10.6017 1.61899 10.6197C1.63602 10.6213 1.65305 10.6222 1.67022 10.6222H1.96273V16.0255C1.96273 17.0949 2.83285 17.9649 3.90223 17.9649H6.77489C7.06616 17.9649 7.30223 17.7287 7.30223 17.4375V13.2012C7.30223 12.7133 7.69925 12.3164 8.18718 12.3164H9.88155C10.3695 12.3164 10.7664 12.7133 10.7664 13.2012V17.4375C10.7664 17.7287 11.0024 17.9649 11.2937 17.9649H14.1664C15.2359 17.9649 16.1059 17.0949 16.1059 16.0255V10.6222H16.3772C16.8197 10.6222 17.2358 10.4498 17.5491 10.1366C18.1945 9.49083 18.1948 8.44013 17.55 7.79399ZM16.8032 9.39086C16.6894 9.5047 16.538 9.56746 16.3772 9.56746H15.5785C15.2872 9.56746 15.0512 9.80353 15.0512 10.0948V16.0255C15.0512 16.5133 14.6543 16.9102 14.1664 16.9102H11.8211V13.2012C11.8211 12.1318 10.9511 11.2617 9.88155 11.2617H8.18718C7.11766 11.2617 6.24754 12.1318 6.24754 13.2012V16.9102H3.90223C3.41444 16.9102 3.01742 16.5133 3.01742 16.0255V10.0948C3.01742 9.80353 2.78135 9.56746 2.49007 9.56746H1.7051C1.69686 9.56691 1.68876 9.5665 1.68038 9.56636C1.52328 9.56362 1.37592 9.50127 1.26551 9.39072C1.03068 9.15589 1.03068 8.7737 1.26551 8.53873C1.26565 8.53873 1.26565 8.53859 1.26578 8.53845L1.2662 8.53804L8.60851 1.196C8.72222 1.08216 8.87342 1.01953 9.03437 1.01953C9.19518 1.01953 9.34638 1.08216 9.46023 1.196L16.8009 8.53653C16.802 8.53763 16.8032 8.53873 16.8043 8.53983C17.0379 8.77507 17.0375 9.15644 16.8032 9.39086Z" fill="#FF0066"/>
</g>
<path d="M25.536 13.084C25.376 13.084 25.252 13.04 25.164 12.952C25.084 12.856 25.044 12.728 25.044 12.568V4.972C25.044 4.804 25.084 4.676 25.164 4.588C25.252 4.5 25.376 4.456 25.536 4.456C25.696 4.456 25.816 4.5 25.896 4.588C25.984 4.676 26.028 4.804 26.028 4.972V8.284H31.104V4.972C31.104 4.804 31.144 4.676 31.224 4.588C31.312 4.5 31.436 4.456 31.596 4.456C31.756 4.456 31.876 4.5 31.956 4.588C32.044 4.676 32.088 4.804 32.088 4.972V12.568C32.088 12.728 32.044 12.856 31.956 12.952C31.876 13.04 31.756 13.084 31.596 13.084C31.436 13.084 31.312 13.04 31.224 12.952C31.144 12.856 31.104 12.728 31.104 12.568V9.136H26.028V12.568C26.028 12.728 25.988 12.856 25.908 12.952C25.828 13.04 25.704 13.084 25.536 13.084ZM36.4649 13.108C35.8969 13.108 35.4049 12.984 34.9889 12.736C34.5729 12.488 34.2489 12.14 34.0169 11.692C33.7929 11.236 33.6809 10.7 33.6809 10.084C33.6809 9.62 33.7449 9.204 33.8729 8.836C34.0009 8.46 34.1889 8.14 34.4369 7.876C34.6849 7.612 34.9769 7.412 35.3129 7.276C35.6569 7.132 36.0409 7.06 36.4649 7.06C37.0329 7.06 37.5249 7.184 37.9409 7.432C38.3569 7.68 38.6769 8.032 38.9009 8.488C39.1329 8.936 39.2489 9.468 39.2489 10.084C39.2489 10.548 39.1849 10.964 39.0569 11.332C38.9289 11.7 38.7409 12.02 38.4929 12.292C38.2449 12.556 37.9489 12.76 37.6049 12.904C37.2689 13.04 36.8889 13.108 36.4649 13.108ZM36.4649 12.328C36.8249 12.328 37.1409 12.24 37.4129 12.064C37.6849 11.888 37.8929 11.632 38.0369 11.296C38.1889 10.96 38.2649 10.556 38.2649 10.084C38.2649 9.356 38.1009 8.8 37.7729 8.416C37.4529 8.032 37.0169 7.84 36.4649 7.84C36.0969 7.84 35.7769 7.928 35.5049 8.104C35.2409 8.272 35.0329 8.524 34.8809 8.86C34.7369 9.188 34.6649 9.596 34.6649 10.084C34.6649 10.804 34.8289 11.36 35.1569 11.752C35.4849 12.136 35.9209 12.328 36.4649 12.328ZM41.2129 13.084C41.0529 13.084 40.9329 13.04 40.8529 12.952C40.7729 12.864 40.7329 12.74 40.7329 12.58V7.576C40.7329 7.416 40.7729 7.296 40.8529 7.216C40.9329 7.128 41.0489 7.084 41.2009 7.084C41.3529 7.084 41.4689 7.128 41.5489 7.216C41.6369 7.296 41.6809 7.416 41.6809 7.576V8.632L41.5489 8.464C41.7009 8.016 41.9449 7.672 42.2809 7.432C42.6249 7.184 43.0329 7.06 43.5049 7.06C44.0009 7.06 44.4009 7.18 44.7049 7.42C45.0169 7.652 45.2249 8.016 45.3289 8.512H45.1489C45.2929 8.064 45.5489 7.712 45.9169 7.456C46.2929 7.192 46.7289 7.06 47.2249 7.06C47.6649 7.06 48.0249 7.144 48.3049 7.312C48.5929 7.48 48.8089 7.736 48.9529 8.08C49.0969 8.416 49.1689 8.844 49.1689 9.364V12.58C49.1689 12.74 49.1249 12.864 49.0369 12.952C48.9569 13.04 48.8369 13.084 48.6769 13.084C48.5249 13.084 48.4049 13.04 48.3169 12.952C48.2369 12.864 48.1969 12.74 48.1969 12.58V9.412C48.1969 8.876 48.1049 8.484 47.9209 8.236C47.7369 7.98 47.4249 7.852 46.9849 7.852C46.5049 7.852 46.1249 8.02 45.8449 8.356C45.5729 8.684 45.4369 9.132 45.4369 9.7V12.58C45.4369 12.74 45.3929 12.864 45.3049 12.952C45.2249 13.04 45.1049 13.084 44.9449 13.084C44.7929 13.084 44.6729 13.04 44.5849 12.952C44.5049 12.864 44.4649 12.74 44.4649 12.58V9.412C44.4649 8.876 44.3689 8.484 44.1769 8.236C43.9929 7.98 43.6849 7.852 43.2529 7.852C42.7729 7.852 42.3929 8.02 42.1129 8.356C41.8409 8.684 41.7049 9.132 41.7049 9.7V12.58C41.7049 12.916 41.5409 13.084 41.2129 13.084ZM53.6142 13.108C52.9982 13.108 52.4662 12.988 52.0182 12.748C51.5782 12.5 51.2342 12.152 50.9862 11.704C50.7462 11.256 50.6262 10.72 50.6262 10.096C50.6262 9.488 50.7462 8.96 50.9862 8.512C51.2262 8.056 51.5542 7.7 51.9702 7.444C52.3942 7.188 52.8822 7.06 53.4342 7.06C53.8262 7.06 54.1782 7.128 54.4902 7.264C54.8022 7.392 55.0662 7.58 55.2822 7.828C55.5062 8.076 55.6742 8.376 55.7862 8.728C55.9062 9.08 55.9662 9.476 55.9662 9.916C55.9662 10.044 55.9302 10.14 55.8582 10.204C55.7862 10.26 55.6822 10.288 55.5462 10.288H51.3702V9.652H55.3182L55.1262 9.808C55.1262 9.376 55.0622 9.012 54.9342 8.716C54.8062 8.412 54.6182 8.18 54.3702 8.02C54.1302 7.86 53.8262 7.78 53.4582 7.78C53.0502 7.78 52.7022 7.876 52.4142 8.068C52.1342 8.252 51.9222 8.512 51.7782 8.848C51.6342 9.176 51.5622 9.56 51.5622 10V10.072C51.5622 10.808 51.7382 11.368 52.0902 11.752C52.4502 12.136 52.9582 12.328 53.6142 12.328C53.8862 12.328 54.1542 12.292 54.4182 12.22C54.6902 12.148 54.9542 12.028 55.2102 11.86C55.3222 11.788 55.4222 11.756 55.5102 11.764C55.6062 11.764 55.6822 11.792 55.7382 11.848C55.7942 11.896 55.8302 11.96 55.8462 12.04C55.8702 12.112 55.8622 12.192 55.8222 12.28C55.7902 12.368 55.7222 12.444 55.6182 12.508C55.3542 12.7 55.0422 12.848 54.6822 12.952C54.3222 13.056 53.9662 13.108 53.6142 13.108Z" fill="#666666"/>
<defs>
<clipPath id="clip0_4083_10832">
<rect width="18" height="18" fill="white"/>
</clipPath>
</defs>
</svg>
