<svg width="16" height="16" viewBox="0 0 16 16" fill="none" xmlns="http://www.w3.org/2000/svg">
<mask id="mask0_4467_434" style="mask-type:alpha" maskUnits="userSpaceOnUse" x="0" y="0" width="17" height="16">
<rect x="0.00195312" width="16" height="16" fill="#D9D9D9"/>
</mask>
<g mask="url(#mask0_4467_434)">
<path d="M2.66878 14.6667V7.33334H1.33545V3.33334H4.80212C4.74656 3.23334 4.71045 3.12778 4.69378 3.01667C4.67712 2.90556 4.66878 2.78889 4.66878 2.66667C4.66878 2.11112 4.86323 1.63889 5.25212 1.25001C5.641 0.861116 6.11323 0.666672 6.66878 0.666672C6.92434 0.666672 7.16323 0.713894 7.38545 0.808338C7.60767 0.902783 7.81323 1.03334 8.00212 1.20001C8.191 1.02223 8.39656 0.888894 8.61878 0.800005C8.841 0.711116 9.07989 0.666672 9.33545 0.666672C9.891 0.666672 10.3632 0.861116 10.7521 1.25001C11.141 1.63889 11.3354 2.11112 11.3354 2.66667C11.3354 2.78889 11.3243 2.90278 11.3021 3.00834C11.2799 3.11389 11.2466 3.22223 11.2021 3.33334H14.6688V7.33334H13.3354V14.6667H2.66878ZM9.33545 2.00001C9.14656 2.00001 8.98823 2.06389 8.86045 2.19167C8.73267 2.31945 8.66878 2.47778 8.66878 2.66667C8.66878 2.85556 8.73267 3.01389 8.86045 3.14167C8.98823 3.26945 9.14656 3.33334 9.33545 3.33334C9.52434 3.33334 9.68267 3.26945 9.81045 3.14167C9.93823 3.01389 10.0021 2.85556 10.0021 2.66667C10.0021 2.47778 9.93823 2.31945 9.81045 2.19167C9.68267 2.06389 9.52434 2.00001 9.33545 2.00001ZM6.00212 2.66667C6.00212 2.85556 6.066 3.01389 6.19378 3.14167C6.32156 3.26945 6.47989 3.33334 6.66878 3.33334C6.85767 3.33334 7.01601 3.26945 7.14378 3.14167C7.27156 3.01389 7.33545 2.85556 7.33545 2.66667C7.33545 2.47778 7.27156 2.31945 7.14378 2.19167C7.01601 2.06389 6.85767 2.00001 6.66878 2.00001C6.47989 2.00001 6.32156 2.06389 6.19378 2.19167C6.066 2.31945 6.00212 2.47778 6.00212 2.66667ZM2.66878 4.66667V6.00001H7.33545V4.66667H2.66878ZM7.33545 13.3333V7.33334H4.00212V13.3333H7.33545ZM8.66878 13.3333H12.0021V7.33334H8.66878V13.3333ZM13.3354 6.00001V4.66667H8.66878V6.00001H13.3354Z" fill="#FF0066"/>
</g>
</svg>
