<svg width="20" height="20" viewBox="0 0 20 20" fill="none" xmlns="http://www.w3.org/2000/svg">
<mask id="mask0_4162_14301" style="mask-type:alpha" maskUnits="userSpaceOnUse" x="0" y="0" width="20" height="20">
<rect y="6.10352e-05" width="20" height="20" fill="#D9D9D9"/>
</mask>
<g mask="url(#mask0_4162_14301)">
<path d="M10 14.1667C10.2362 14.1667 10.4341 14.0868 10.5938 13.9271C10.7535 13.7674 10.8334 13.5695 10.8334 13.3334C10.8334 13.0973 10.7535 12.8993 10.5938 12.7396C10.4341 12.5799 10.2362 12.5 10 12.5C9.76393 12.5 9.56601 12.5799 9.40629 12.7396C9.24657 12.8993 9.16671 13.0973 9.16671 13.3334C9.16671 13.5695 9.24657 13.7674 9.40629 13.9271C9.56601 14.0868 9.76393 14.1667 10 14.1667ZM9.16671 10.8334H10.8334V5.83337H9.16671V10.8334ZM10 19.4167L7.20837 16.6667H3.33337V12.7917L0.583374 10L3.33337 7.20837V3.33337H7.20837L10 0.583374L12.7917 3.33337H16.6667V7.20837L19.4167 10L16.6667 12.7917V16.6667H12.7917L10 19.4167ZM10 17.0834L12.0834 15H15V12.0834L17.0834 10L15 7.91671V5.00004H12.0834L10 2.91671L7.91671 5.00004H5.00004V7.91671L2.91671 10L5.00004 12.0834V15H7.91671L10 17.0834Z" fill="#FF0066"/>
</g>
</svg>
