<svg width="26" height="23" viewBox="0 0 26 23" fill="none" xmlns="http://www.w3.org/2000/svg">
<g clip-path="url(#clip0_4407_6727)">
<path fill-rule="evenodd" clip-rule="evenodd" d="M20.6428 17.0628H8.71907C8.18698 17.0628 7.84837 16.5065 8.09023 16.0349L8.28372 15.6479H20.6428C20.9572 15.6479 21.2353 15.4423 21.32 15.1279L22.1907 12.0926C22.1181 12.0926 22.0335 12.0926 21.9609 12.0926C21.5498 12.0926 21.1507 12.0563 20.7516 11.9837L20.1107 14.2209H8.38046L5.94977 5.71954H14.3665C14.2819 5.28419 14.2456 4.83675 14.2456 4.37722V4.29257H5.5386L4.88558 1.97071C4.78884 1.66838 4.5107 1.4628 4.19628 1.4628H0.713488C0.314419 1.4628 0 1.77722 0 2.17629C0 2.57536 0.314419 2.87768 0.713488 2.87768H3.66419L7.08651 14.8498L6.82046 15.394C6.10698 16.8088 7.13488 18.4656 8.71907 18.4656H20.6428C21.0298 18.4656 21.3563 18.1512 21.3563 17.7642C21.3563 17.3772 21.0298 17.0507 20.6428 17.0507V17.0628ZM17.813 18.4777C16.64 18.4777 15.6847 19.433 15.6847 20.6061C15.6847 21.7791 16.64 22.7344 17.813 22.7344C18.986 22.7344 19.9414 21.7791 19.9414 20.6061C19.9414 19.433 18.986 18.4777 17.813 18.4777ZM17.813 21.3195C17.414 21.3195 17.0995 20.993 17.0995 20.6061C17.0995 20.2191 17.414 19.8926 17.813 19.8926C18.2121 19.8926 18.5144 20.2191 18.5144 20.6061C18.5144 20.993 18.2 21.3195 17.813 21.3195ZM10.6781 18.4777C9.50512 18.4777 8.54977 19.433 8.54977 20.6061C8.54977 21.7791 9.50512 22.7344 10.6781 22.7344C11.8512 22.7344 12.8065 21.7791 12.8065 20.6061C12.8065 19.433 11.8512 18.4777 10.6781 18.4777ZM10.6781 21.3195C10.2912 21.3195 9.96465 20.993 9.96465 20.6061C9.96465 20.2191 10.2912 19.8926 10.6781 19.8926C11.0651 19.8926 11.3795 20.2191 11.3795 20.6061C11.3795 20.993 11.0651 21.3195 10.6781 21.3195Z" fill="#1C1C1C"/>
</g>
<path d="M21.4651 9.33536C21.2011 9.33536 20.9972 9.26338 20.8532 9.11942C20.7092 8.96345 20.6373 8.75351 20.6373 8.48957V5.5383H17.74C17.488 5.5383 17.2901 5.47231 17.1461 5.34035C17.0022 5.19638 16.9302 4.99843 16.9302 4.74649C16.9302 4.49455 17.0022 4.3026 17.1461 4.17063C17.2901 4.02667 17.488 3.95469 17.74 3.95469H20.6373V1.09339C20.6373 0.829456 20.7092 0.625506 20.8532 0.481541C20.9972 0.337577 21.2071 0.265594 21.4831 0.265594C21.747 0.265594 21.9449 0.337577 22.0769 0.481541C22.2209 0.625506 22.2929 0.829456 22.2929 1.09339V3.95469H25.1901C25.4541 3.95469 25.652 4.02667 25.784 4.17063C25.928 4.3026 25.9999 4.49455 25.9999 4.74649C25.9999 4.99843 25.928 5.19638 25.784 5.34035C25.652 5.47231 25.4541 5.5383 25.1901 5.5383H22.2929V8.48957C22.2929 8.75351 22.2209 8.96345 22.0769 9.11942C21.9449 9.26338 21.741 9.33536 21.4651 9.33536Z" fill="#1C1C1C"/>
<defs>
<clipPath id="clip0_4407_6727">
<rect width="22.1907" height="21.2595" fill="white" transform="translate(0 1.47488)"/>
</clipPath>
</defs>
</svg>
