<svg width="35" height="28" viewBox="0 0 35 28" fill="none" xmlns="http://www.w3.org/2000/svg">
<path d="M18.4472 19.4295H27.5902C27.6663 19.434 27.7426 19.4223 27.8139 19.3952C27.8853 19.3681 27.95 19.3262 28.004 19.2723C28.0579 19.2183 28.0998 19.1536 28.1269 19.0822C28.154 19.0109 28.1657 18.9347 28.1612 18.8585V13.7155C28.1657 13.6393 28.154 13.5631 28.1269 13.4918C28.0998 13.4204 28.0579 13.3557 28.004 13.3017C27.95 13.2478 27.8853 13.2059 27.8139 13.1788C27.7426 13.1517 27.6663 13.14 27.5902 13.1445H18.4472C18.371 13.14 18.2948 13.1517 18.2234 13.1788C18.1521 13.2059 18.0874 13.2478 18.0334 13.3017C17.9795 13.3557 17.9376 13.4204 17.9105 13.4918C17.8834 13.5631 17.8717 13.6393 17.8762 13.7155V18.8625C17.8723 18.9383 17.8844 19.0142 17.9117 19.085C17.9391 19.1558 17.9811 19.2201 18.035 19.2736C18.0889 19.3271 18.1534 19.3687 18.2245 19.3955C18.2955 19.4224 18.3714 19.434 18.4472 19.4295ZM19.0182 14.2865H27.0182V18.2865H19.0182V14.2865Z" fill="#FF6712"/>
<path d="M3.01901 12.0004H7.59001C7.74158 12.0004 7.88694 11.9402 7.99412 11.833C8.1013 11.7258 8.16151 11.5805 8.16151 11.4289C8.16151 11.2774 8.1013 11.132 7.99412 11.0248C7.88694 10.9176 7.74158 10.8574 7.59001 10.8574H3.01901C2.86744 10.8574 2.72208 10.9176 2.6149 11.0248C2.50772 11.132 2.44751 11.2774 2.44751 11.4289C2.44751 11.5805 2.50772 11.7258 2.6149 11.833C2.72208 11.9402 2.86744 12.0004 3.01901 12.0004Z" fill="#FF6712"/>
<path d="M9.87619 12.0004H14.4472C14.5988 12.0004 14.7441 11.9402 14.8513 11.833C14.9585 11.7258 15.0187 11.5805 15.0187 11.4289C15.0187 11.2774 14.9585 11.132 14.8513 11.0248C14.7441 10.9176 14.5988 10.8574 14.4472 10.8574H9.87619C9.72462 10.8574 9.57925 10.9176 9.47208 11.0248C9.3649 11.132 9.30469 11.2774 9.30469 11.4289C9.30469 11.5805 9.3649 11.7258 9.47208 11.833C9.57925 11.9402 9.72462 12.0004 9.87619 12.0004Z" fill="#FF6712"/>
<path d="M3.01901 14.2865H10.448C10.5996 14.2865 10.7449 14.2263 10.8521 14.1192C10.9593 14.012 11.0195 13.8666 11.0195 13.715C11.0195 13.5635 10.9593 13.4181 10.8521 13.3109C10.7449 13.2038 10.5996 13.1436 10.448 13.1436H3.01901C2.86744 13.1436 2.72208 13.2038 2.6149 13.3109C2.50772 13.4181 2.44751 13.5635 2.44751 13.715C2.44751 13.8666 2.50772 14.012 2.6149 14.1192C2.72208 14.2263 2.86744 14.2865 3.01901 14.2865Z" fill="#FF6712"/>
<path d="M14.4481 13.1436H12.7341C12.5825 13.1436 12.4372 13.2038 12.33 13.3109C12.2228 13.4181 12.1626 13.5635 12.1626 13.7151C12.1626 13.8666 12.2228 14.012 12.33 14.1192C12.4372 14.2263 12.5825 14.2866 12.7341 14.2866H14.4481C14.5997 14.2866 14.745 14.2263 14.8522 14.1192C14.9594 14.012 15.0196 13.8666 15.0196 13.7151C15.0196 13.5635 14.9594 13.4181 14.8522 13.3109C14.745 13.2038 14.5997 13.1436 14.4481 13.1436Z" fill="#FF6712"/>
<path d="M33.9331 6.05749C33.7522 5.81261 33.5208 5.6094 33.2546 5.46156C32.9884 5.31372 32.6936 5.22469 32.3901 5.20049L31.0191 5.03449V2.28649C31.0175 1.68069 30.7762 1.10016 30.3478 0.671791C29.9194 0.243426 29.3389 0.00207207 28.7331 0.000488281H2.44811C1.84231 0.00207207 1.26178 0.243426 0.833413 0.671791C0.405047 1.10016 0.163693 1.68069 0.162109 2.28649V20.5715C0.163593 21.064 0.323573 21.543 0.618386 21.9376C0.913198 22.3322 1.32719 22.6214 1.79911 22.7625C1.78611 23.3258 1.98742 23.8731 2.36238 24.2937C2.73734 24.7143 3.25798 24.977 3.81911 25.0285L30.2191 27.9995H30.4481C30.9993 28.0053 31.534 27.8119 31.954 27.455C32.374 27.098 32.651 26.6014 32.7341 26.0565L34.4481 7.71349C34.4777 7.41703 34.4474 7.11764 34.3589 6.83315C34.2704 6.54865 34.1256 6.28486 33.9331 6.05749ZM1.30511 4.00049H29.8761V7.42949H1.30511V4.00049ZM2.44811 1.14349H28.7331C29.036 1.14428 29.3263 1.26496 29.5405 1.47914C29.7546 1.69332 29.8753 1.98359 29.8761 2.28649V2.85749H1.30511V2.28649C1.3059 1.98359 1.42658 1.69332 1.64076 1.47914C1.85494 1.26496 2.14521 1.14428 2.44811 1.14349ZM1.30511 20.5715V8.57149H29.8761V20.5715C29.8753 20.8744 29.7546 21.1647 29.5405 21.3788C29.3263 21.593 29.036 21.7137 28.7331 21.7145H2.44811C2.14521 21.7137 1.85494 21.593 1.64076 21.3788C1.42658 21.1647 1.3059 20.8744 1.30511 20.5715ZM33.3051 7.48549L31.5911 25.8295C31.5598 26.1322 31.4101 26.4102 31.1746 26.6029C30.9391 26.7957 30.637 26.8876 30.3341 26.8585L3.99111 23.8865C3.72759 23.859 3.48152 23.7418 3.29417 23.5544C3.10683 23.3671 2.98958 23.121 2.96211 22.8575H28.7331C29.3389 22.8559 29.9194 22.6146 30.3478 22.1862C30.7762 21.7578 31.0175 21.1773 31.0191 20.5715V6.11449L32.3331 6.22849C32.479 6.2354 32.6214 6.27492 32.75 6.34414C32.8786 6.41336 32.99 6.51052 33.0761 6.62849C33.1689 6.74937 33.2369 6.8874 33.2762 7.03464C33.3155 7.18188 33.3253 7.33444 33.3051 7.48549Z" fill="#FF6712"/>
</svg>
