<svg width="20" height="20" viewBox="0 0 20 20" fill="none" xmlns="http://www.w3.org/2000/svg">
<mask id="mask0_4162_14290" style="mask-type:alpha" maskUnits="userSpaceOnUse" x="0" y="0" width="20" height="21">
<rect y="0.00012207" width="20" height="20" fill="#D9D9D9"/>
</mask>
<g mask="url(#mask0_4162_14290)">
<path d="M5.83333 14.1668H11.6667V12.5001H5.83333V14.1668ZM5.83333 10.8335H14.1667V9.16679H5.83333V10.8335ZM5.83333 7.50012H14.1667V5.83346H5.83333V7.50012ZM4.16667 17.5001C3.70833 17.5001 3.31597 17.3369 2.98958 17.0105C2.66319 16.6841 2.5 16.2918 2.5 15.8335V4.16679C2.5 3.70846 2.66319 3.31609 2.98958 2.98971C3.31597 2.66332 3.70833 2.50012 4.16667 2.50012H15.8333C16.2917 2.50012 16.684 2.66332 17.0104 2.98971C17.3368 3.31609 17.5 3.70846 17.5 4.16679V15.8335C17.5 16.2918 17.3368 16.6841 17.0104 17.0105C16.684 17.3369 16.2917 17.5001 15.8333 17.5001H4.16667ZM4.16667 15.8335H15.8333V4.16679H4.16667V15.8335Z" fill="#FF0066"/>
</g>
</svg>
