<svg width="22" height="23" viewBox="0 0 22 23" fill="none" xmlns="http://www.w3.org/2000/svg">
<path d="M4.79541 20.5449L4.79532 20.5448C4.4169 20.2706 4.24014 19.7991 4.3431 19.3443L4.34311 19.3443L5.61659 13.7346L1.29801 9.94734C0.947059 9.64097 0.81303 9.15574 0.957062 8.71196L0.95708 8.71191C1.1011 8.26899 1.49313 7.95524 1.95715 7.91234L1.95731 7.91233L7.67132 7.39357L9.93048 2.10669L9.93053 2.10657C10.1145 1.67752 10.5339 1.40006 10.9999 1.40006C11.466 1.40006 11.8853 1.67747 12.0693 2.10558L12.0694 2.10578L14.3286 7.39357L20.0416 7.91232L4.79541 20.5449ZM4.79541 20.5449C4.99827 20.6916 5.2364 20.7665 5.47642 20.7665C5.68374 20.7665 5.8889 20.7106 6.07254 20.6016L6.0728 20.6014L11 17.6553L15.9269 20.5996L4.79541 20.5449ZM17.6575 19.3434L17.6576 19.3434C17.7606 19.799 17.5838 20.2705 17.2055 20.5441C16.8281 20.8175 16.3248 20.8386 15.9271 20.5998L17.6575 19.3434ZM17.6575 19.3434L16.3841 13.7339L20.7026 9.94734L17.6575 19.3434ZM11.596 16.322L11.5963 16.3222L16.0942 19.0123L14.9316 13.8909C14.8368 13.4743 14.9782 13.0395 15.3 12.7577L11.596 16.322ZM11.596 16.322C11.4122 16.2129 11.2072 16.1572 10.9999 16.1572C10.7927 16.1572 10.5875 16.2129 10.4038 16.322L10.4036 16.3221L5.90564 19.0115M11.596 16.322L5.90564 19.0115M5.90564 19.0115L7.06732 13.8903C7.16299 13.4727 7.02164 13.0385 6.69901 12.756L5.90564 19.0115ZM19.2448 9.29804L15.3 12.7577L6.69894 12.756L2.75427 9.29636L7.97393 8.82243L7.97401 8.82242C8.40205 8.78322 8.77154 8.5134 8.93768 8.12016C8.93771 8.12009 8.93775 8.12001 8.93778 8.11994L10.9999 3.29387L13.0596 8.11932C13.0596 8.11933 13.0596 8.11934 13.0596 8.11935C13.2273 8.5149 13.5967 8.78489 14.0259 8.82411L14.026 8.82411L19.2448 9.29804ZM21.0428 8.71191C20.8988 8.26912 20.5069 7.95427 20.0417 7.91233L20.7028 9.9472C21.0537 9.64073 21.1868 9.15476 21.0428 8.71191Z" fill="#FF0066" stroke="#FF0066" stroke-width="0.2"/>
</svg>
