<svg width="24" height="22" viewBox="0 0 24 22" fill="none" xmlns="http://www.w3.org/2000/svg">
<path d="M8.5376 19.151C8.5376 20.2965 9.46951 21.2284 10.615 21.2284C11.7604 21.2284 12.6924 20.2965 12.6924 19.151C12.6924 18.0055 11.7604 17.0736 10.615 17.0736C9.46951 17.0736 8.5376 18.0055 8.5376 19.151ZM10.615 18.4585C10.9968 18.4585 11.3074 18.7692 11.3074 19.151C11.3074 19.5328 10.9968 19.8435 10.615 19.8435C10.2332 19.8435 9.92252 19.5328 9.92252 19.151C9.92252 18.7692 10.2332 18.4585 10.615 18.4585Z" fill="#1C1C1C"/>
<path d="M15.5083 19.151C15.5083 20.2965 16.4402 21.2284 17.5857 21.2284C18.7312 21.2284 19.6631 20.2965 19.6631 19.151C19.6631 18.0055 18.7312 17.0736 17.5857 17.0736C16.4402 17.0736 15.5083 18.0055 15.5083 19.151ZM17.5857 18.4585C17.9675 18.4585 18.2781 18.7692 18.2781 19.151C18.2781 19.5328 17.9675 19.8435 17.5857 19.8435C17.2039 19.8435 16.8932 19.5328 16.8932 19.151C16.8932 18.7692 17.2039 18.4585 17.5857 18.4585Z" fill="#1C1C1C"/>
<path d="M23.1252 3.22439H5.59747C5.36037 2.3944 5.13943 1.62106 4.94965 0.956809C4.86475 0.659512 4.59299 0.454544 4.28382 0.454544H0.874101C0.491678 0.454544 0.181641 0.764582 0.181641 1.14701C0.181641 1.52943 0.491678 1.83947 0.874101 1.83947H3.76148C4.53583 4.55003 6.34611 10.8862 7.10505 13.5425L6.8427 14.0672C6.15139 15.4499 7.15818 17.0736 8.7008 17.0736H20.3553C20.7378 17.0736 21.0478 16.7636 21.0478 16.3811C21.0478 15.9987 20.7378 15.6887 20.3553 15.6887H8.7008C8.18579 15.6887 7.85134 15.1468 8.08142 14.6866L8.27281 14.3038H20.3553C20.6645 14.3038 20.9362 14.0988 21.0212 13.8015L23.791 4.10709C23.9172 3.66553 23.5854 3.22439 23.1252 3.22439ZM19.833 12.9188H8.36722C7.98992 11.5982 6.93396 7.90242 5.99314 4.60931H22.2072L19.833 12.9188Z" fill="#1C1C1C"/>
</svg>
