<svg width="22" height="22" viewBox="0 0 22 22" fill="none" xmlns="http://www.w3.org/2000/svg">
<path d="M11.3353 1C8.57829 1 6.33529 3.36566 6.33529 6.27344C6.33529 9.18121 8.57829 11.5469 11.3353 11.5469C14.0923 11.5469 16.3353 9.18121 16.3353 6.27344C16.3353 3.36566 14.0923 1 11.3353 1ZM11.3353 10.375C9.19095 10.375 7.4464 8.53504 7.4464 6.27344C7.4464 4.01184 9.19095 2.17188 11.3353 2.17188C13.4796 2.17188 15.2242 4.01184 15.2242 6.27344C15.2242 8.53504 13.4796 10.375 11.3353 10.375Z" fill="#FF0066"/>
<path d="M17.5562 14.992C16.1874 13.5261 14.3727 12.7188 12.4464 12.7188H10.2242C8.29795 12.7188 6.48321 13.5261 5.11432 14.992C3.75214 16.4507 3.00195 18.3763 3.00195 20.4141C3.00195 20.7377 3.25069 21 3.55751 21H19.1131C19.4199 21 19.6686 20.7377 19.6686 20.4141C19.6686 18.3763 18.9184 16.4507 17.5562 14.992ZM4.13751 19.8281C4.41584 16.5045 7.0394 13.8906 10.2242 13.8906H12.4464C15.6312 13.8906 18.2547 16.5045 18.5331 19.8281H4.13751Z" fill="#FF0066"/>
</svg>
