<svg width="12" height="17" viewBox="0 0 12 17" fill="none" xmlns="http://www.w3.org/2000/svg">
<path d="M6.004 10.6663C5.3097 10.6663 4.71954 10.4233 4.23353 9.93731C3.74752 9.45129 3.50452 8.86114 3.50452 8.16684V3.16788C3.50452 2.47358 3.74752 1.88342 4.23353 1.39741C4.71954 0.911401 5.3097 0.668396 6.004 0.668396C6.6983 0.668396 7.28845 0.911401 7.77446 1.39741C8.26047 1.88342 8.50348 2.47358 8.50348 3.16788V8.16684C8.50348 8.86114 8.26047 9.45129 7.77446 9.93731C7.28845 10.4233 6.6983 10.6663 6.004 10.6663ZM5.17084 16.4984V13.9365C3.72669 13.7421 2.5325 13.0964 1.58825 11.9994C0.643999 10.9024 0.171875 9.62487 0.171875 8.16684H1.8382C1.8382 9.31938 2.24436 10.3018 3.05669 11.1141C3.86902 11.9265 4.85146 12.3326 6.004 12.3326C7.15654 12.3326 8.13897 11.9265 8.9513 11.1141C9.76363 10.3018 10.1698 9.31938 10.1698 8.16684H11.8361C11.8361 9.62487 11.364 10.9024 10.4197 11.9994C9.4755 13.0964 8.2813 13.7421 6.83716 13.9365V16.4984H5.17084ZM6.004 9C6.24006 9 6.43794 8.92016 6.59762 8.76047C6.75731 8.60078 6.83716 8.4029 6.83716 8.16684V3.16788C6.83716 2.93182 6.75731 2.73394 6.59762 2.57425C6.43794 2.41456 6.24006 2.33472 6.004 2.33472C5.76794 2.33472 5.57006 2.41456 5.41037 2.57425C5.25068 2.73394 5.17084 2.93182 5.17084 3.16788V8.16684C5.17084 8.4029 5.25068 8.60078 5.41037 8.76047C5.57006 8.92016 5.76794 9 6.004 9Z" fill="#FF6600"/>
</svg>
