<svg xmlns="http://www.w3.org/2000/svg" width="12" height="16" viewBox="0 0 12 16" fill="none">
<path d="M5.83212 9.99792C5.13782 9.99792 4.54767 9.75492 4.06166 9.26891C3.57565 8.7829 3.33264 8.19274 3.33264 7.49844V2.49948C3.33264 1.80518 3.57565 1.21503 4.06166 0.729015C4.54767 0.243005 5.13782 0 5.83212 0C6.52642 0 7.11658 0.243005 7.60259 0.729015C8.0886 1.21503 8.3316 1.80518 8.3316 2.49948V7.49844C8.3316 8.19274 8.0886 8.7829 7.60259 9.26891C7.11658 9.75492 6.52642 9.99792 5.83212 9.99792ZM4.99896 15.83V13.2681C3.55482 13.0737 2.36062 12.428 1.41637 11.331C0.472124 10.234 0 8.95647 0 7.49844H1.66632C1.66632 8.65098 2.07249 9.63342 2.88482 10.4457C3.69715 11.2581 4.67958 11.6642 5.83212 11.6642C6.98466 11.6642 7.9671 11.2581 8.77943 10.4457C9.59176 9.63342 9.99792 8.65098 9.99792 7.49844H11.6642C11.6642 8.95647 11.1921 10.234 10.2479 11.331C9.30363 12.428 8.10943 13.0737 6.66528 13.2681V15.83H4.99896ZM5.83212 8.3316C6.06818 8.3316 6.26606 8.25176 6.42575 8.09207C6.58544 7.93238 6.66528 7.73451 6.66528 7.49844V2.49948C6.66528 2.26342 6.58544 2.06554 6.42575 1.90585C6.26606 1.74617 6.06818 1.66632 5.83212 1.66632C5.59606 1.66632 5.39818 1.74617 5.2385 1.90585C5.07881 2.06554 4.99896 2.26342 4.99896 2.49948V7.49844C4.99896 7.73451 5.07881 7.93238 5.2385 8.09207C5.39818 8.25176 5.59606 8.3316 5.83212 8.3316Z" fill="#FF0066"/>
</svg>